<svg width="472" height="2150" viewBox="0 0 472 2150" fill="none" xmlns="http://www.w3.org/2000/svg">
<path d="M310.547 25.3633L328.125 34.1549L336.911 51.7279L331.052 133.754L328.125 165.978V394.473L351.563 502.863L372.068 599.535L392.578 678.629L407.224 760.655L416.016 845.608L436.521 1000.87L448.24 1159.06L454.099 1249.87L459.958 1378.77V1431.5L462.885 1484.23V1689.29L468.745 1730.3L471.677 1785.96V1853.34L459.958 1926.57L439.453 1991.02L416.016 2034.96L407.224 2046.68H401.365L395.505 2058.4L375 2078.91L333.984 2111.13L290.036 2143.35L272.458 2149.21H225.583L222.656 2146.28V2114.06L246.094 2081.83L272.458 2049.61L304.688 1988.09L307.615 1973.45V1903.14L298.828 1853.34L295.896 1850.41L290.036 1873.84L281.25 1976.37L275.391 2002.74L257.813 2023.24H231.443L216.797 2008.6L208.005 1967.59L202.146 1879.7V1736.16L228.516 1674.64L249.021 1633.63L266.599 1592.62L272.458 1572.11L278.318 1501.81V1431.5L263.672 1352.4L249.021 1290.88L237.302 1238.16L210.938 1153.2L178.708 1027.23L158.203 974.504L140.625 918.843L134.766 889.551L111.328 816.317L93.75 751.869L70.3125 681.561L64.4531 661.056L58.5938 593.676L52.7344 555.593L46.875 447.202L35.1563 347.603L20.5052 286.087L5.85938 218.707L0 186.483L2.92708 180.624L29.2969 177.697L38.0833 168.905L43.9427 160.119L64.4531 163.046L58.5938 151.332L52.7344 145.473L61.5208 142.54L76.1719 127.895L93.75 124.967L105.469 136.681L114.255 139.613V130.822L131.833 124.967V130.822L155.271 124.967L158.203 116.176H172.849L175.781 98.6029L193.359 101.53L199.219 104.457V81.0247H205.078V101.53L216.797 104.457V89.8112L231.443 92.7435L228.516 107.389L225.583 113.249H234.375L237.302 89.8112H246.094L251.953 63.4466L272.458 60.5195L281.25 51.7279L290.036 54.6602L287.109 63.4466H292.969V69.306L304.688 66.3789L301.755 54.6602L295.896 48.8008L313.474 40.0091L310.547 25.3633ZM263.672 81.0247L257.813 92.7435L272.458 86.8841L269.531 81.0247H263.672ZM281.25 81.0247L284.177 89.8112L292.969 81.0247H281.25ZM175.781 119.108V130.822H184.568V122.035L190.427 119.108H175.781ZM49.8021 189.415L55.6615 195.27V189.415H49.8021Z" fill="#FDE0C8"/>
<path d="M155.271 96.6719L164.063 99.6042L161.13 108.391L152.344 105.458L155.271 96.6719Z" fill="#FDE2CA"/>
<path d="M313.474 0H319.333V11.7188H310.547L313.474 0Z" fill="#FDE1C8"/>
<path d="M32.2241 152.332L43.9429 155.259L38.0835 161.118L32.2241 158.191V152.332Z" fill="#FEE2CA"/>
<path d="M8.78662 166.977L17.5783 175.763L8.78662 172.836V166.977Z" fill="#FEE6CE"/>
<path d="M190.427 87.8828L196.287 90.8099L190.427 93.7422V87.8828Z" fill="#FFE7CE"/>
</svg>
