<svg width="1847" height="2189" viewBox="0 0 1847 2189" fill="none" xmlns="http://www.w3.org/2000/svg">
<path d="M651.776 62.0729L690.573 100.87L675.052 116.391L659.536 108.63V124.151H636.255L628.5 85.3542H651.776V62.0729ZM1148.37 93.1094H1225.96L1218.2 124.151H1194.92V108.63L1171.65 116.391L1148.37 93.1094ZM1249.24 46.5573L1295.79 62.0729L1303.55 85.3542L1264.76 93.1094L1241.48 54.3177L1249.24 46.5573ZM589.703 54.3177H628.5L605.219 62.0729L597.458 93.1094L558.667 69.8333L589.703 54.3177ZM519.87 85.3542H550.906L558.667 124.151L527.625 116.391L512.109 93.1094L519.87 85.3542ZM1590.65 85.3542H1613.92L1621.68 108.63L1606.16 116.391V100.87H1582.89L1575.13 116.391V93.1094L1590.65 85.3542ZM1249.24 93.1094L1256.99 108.63L1280.28 116.391L1249.24 124.151L1233.72 116.391V100.87L1249.24 93.1094ZM186.219 69.8333L209.5 100.87L201.74 124.151L186.219 93.1094V69.8333ZM193.979 155.188L225.016 162.943L217.255 186.224H201.74L193.979 155.188ZM248.297 85.3542L279.333 93.1094L248.297 108.63V85.3542ZM465.552 38.7969L512.109 46.5573V54.3177H465.552V38.7969ZM1272.52 93.1094H1303.55L1295.79 116.391L1272.52 93.1094ZM1435.46 38.7969L1458.74 62.0729L1443.22 69.8333L1435.46 38.7969ZM403.479 31.0365L411.24 46.5573H426.755L419 62.0729L403.479 54.3177V31.0365ZM1637.2 162.943H1652.72L1644.96 186.224L1637.2 162.943ZM1326.83 124.151H1342.35V139.667L1319.07 131.906L1326.83 124.151ZM403.479 108.63H419V124.151L395.719 116.391L403.479 108.63ZM1528.57 69.8333L1559.61 85.3542H1528.57V69.8333ZM1202.68 62.0729L1210.44 85.3542H1194.92L1202.68 62.0729ZM612.979 15.5208L628.5 31.0365L612.979 46.5573V15.5208ZM1233.72 15.5208H1249.24L1241.48 38.7969L1233.72 15.5208ZM667.292 62.0729L690.573 69.8333H667.292V62.0729ZM403.479 62.0729H419L411.24 85.3542L403.479 62.0729ZM1381.15 38.7969L1396.66 46.5573H1373.39L1381.15 38.7969ZM1419.94 15.5208L1435.46 23.276L1427.7 38.7969L1419.94 15.5208ZM1613.92 201.74L1629.44 209.5L1613.92 217.26V201.74ZM232.776 201.74H248.297L240.536 217.26L232.776 201.74ZM310.37 100.87L325.885 108.63L310.37 116.391V100.87ZM325.885 77.5938L341.406 93.1094H325.885V77.5938ZM302.609 77.5938H318.13L310.37 93.1094L302.609 77.5938ZM1187.16 23.276L1202.68 31.0365L1187.16 38.7969V23.276ZM644.016 23.276L651.776 38.7969L636.255 31.0365L644.016 23.276Z" fill="#FEE0C8"/>
<path d="M1357.86 77.5938L1373.39 85.3542L1427.7 77.5938L1404.42 100.87V124.151H1443.22V108.63L1482.02 124.151L1489.78 100.87L1505.29 116.391L1497.53 131.906L1567.36 139.667V124.151L1590.65 131.906L1582.89 139.667L1606.16 147.427V162.943H1621.68L1629.44 139.667L1644.96 147.427L1629.44 186.224L1575.13 170.703L1544.09 201.74H1590.65L1606.16 217.26L1644.96 209.5L1629.44 240.536L1637.2 279.333L1598.4 481.073L1582.89 651.776V760.406L1606.16 900.073V962.146L1598.4 993.182V1086.3L1691.52 1365.63L1784.63 1606.17L1831.18 1738.07L1846.7 1823.42V1955.33L1815.66 2048.44L1784.63 2094.99L1730.31 2141.55L1621.68 2180.35L1582.89 2188.11H1443.22L1350.11 2164.83L1280.28 2118.28L1218.2 2048.44L1187.16 1970.85L1156.13 1730.31L1109.57 1520.81L1047.49 1319.07L1016.46 1233.72L1008.7 1187.17V1024.22L1031.98 931.109L1078.54 822.479L1140.61 744.891L1148.37 698.333V162.943H1187.16V139.667L1210.44 147.427H1218.2L1249.24 162.943L1256.99 139.667H1272.52L1280.28 124.151L1311.31 116.391L1303.55 85.3542H1350.11L1357.86 77.5938ZM1342.35 100.87L1303.55 124.151L1295.79 155.188L1342.35 170.703L1350.11 155.188L1373.39 147.427L1357.86 116.391L1342.35 100.87ZM1419.94 131.906L1412.18 147.427H1427.7L1419.94 131.906ZM1466.49 131.906L1450.98 155.188L1466.49 170.703V155.188L1482.02 147.427L1466.49 131.906ZM1458.74 178.464L1466.49 193.984L1474.26 178.464H1458.74ZM1505.29 225.021V240.536L1536.33 232.776L1505.29 225.021ZM465.552 85.3542H504.349V131.906L496.589 147.427L512.109 155.188V170.703L558.667 162.943V124.151H581.943V108.63L628.5 100.87L589.703 139.667H605.219L620.74 162.943L636.255 139.667L651.776 155.188L659.536 139.667L675.052 147.427L667.292 162.943L698.333 155.188V675.057L706.089 744.891L768.167 822.479L806.958 907.833L837.995 1024.22V1187.17L814.719 1288.04L775.922 1388.91L713.849 1621.68L682.813 1792.39L659.536 1970.85L628.5 2048.44L558.667 2126.04L496.589 2164.83L403.479 2188.11H263.813L139.667 2149.31L85.349 2118.28L38.7969 2063.96L7.76042 1986.37L0 1947.57V1838.94L23.276 1722.55L77.5938 1567.37L170.703 1326.83L248.297 1101.81V985.427L240.536 915.594L271.573 721.609L248.297 465.557L209.5 271.573V232.776L201.74 193.984L217.255 201.74L240.536 225.021H256.052V209.5L294.849 201.74L287.089 162.943L271.573 178.464L232.776 186.224L217.255 139.667L248.297 155.188L271.573 131.906L287.089 108.63V139.667H341.406L356.922 124.151V100.87L372.443 93.1094V124.151L419 131.906L442.276 108.63V131.906H457.797V93.1094L465.552 85.3542ZM387.964 131.906L380.203 155.188H395.719L403.479 170.703L411.24 147.427L387.964 131.906ZM426.755 139.667L419 155.188L442.276 147.427L426.755 139.667ZM349.167 209.5L325.885 240.536H356.922L364.682 217.26L349.167 209.5Z" fill="#FEE0C8"/>
</svg>
