<svg xmlns="http://www.w3.org/2000/svg" xmlns:xlink="http://www.w3.org/1999/xlink" width="4000" zoomAndPan="magnify" viewBox="0 0 810 1439.99993" height="2160" preserveAspectRatio="xMidYMid meet" version="1.0"><defs><clipPath id="0d2d7f0369"><path d="M 0 0 L 84 0 L 84 1440 L 0 1440 Z M 0 0 " clip-rule="nonzero"/></clipPath><clipPath id="bfe7709f09"><path d="M -652.480469 -20.425781 L 762.65625 4.277344 L 734.335938 1626.679688 L -680.800781 1601.976562 Z M -652.480469 -20.425781 " clip-rule="nonzero"/></clipPath><clipPath id="cfade0160e"><path d="M 4 0 L 84 0 L 84 1440 L 4 1440 Z M 4 0 " clip-rule="nonzero"/></clipPath><clipPath id="b90d3d7b3e"><path d="M -652.480469 -20.425781 L 762.65625 4.277344 L 734.335938 1626.679688 L -680.800781 1601.976562 Z M -652.480469 -20.425781 " clip-rule="nonzero"/></clipPath><clipPath id="b6bb9ff321"><path d="M 2320.398438 -993.921875 L -634.433594 -1045.5 L -686.011719 1909.335938 L 2268.824219 1960.914062 Z M 2320.398438 -993.921875 " clip-rule="nonzero"/></clipPath><clipPath id="8e0a83921d"><rect x="0" width="84" y="0" height="1440"/></clipPath><clipPath id="7873334c99"><rect x="0" width="84" y="0" height="1440"/></clipPath></defs><rect x="-81" width="972" fill="#ffffff" y="-143.999993" height="1727.999916" fill-opacity="1"/><rect x="-81" width="972" fill="#ffffff" y="-143.999993" height="1727.999916" fill-opacity="1"/><g transform="matrix(1, 0, 0, 1, 726, -0.000000000000031624)"><g clip-path="url(#7873334c99)"><g clip-path="url(#0d2d7f0369)"><g clip-path="url(#bfe7709f09)"><g transform="matrix(1, 0, 0, 1, 0, -0.000000000000031624)"><g clip-path="url(#8e0a83921d)"><g clip-path="url(#cfade0160e)"><g clip-path="url(#b90d3d7b3e)"><g clip-path="url(#b6bb9ff321)"><path fill="#fee0c8" d="M 149.304688 18.910156 L 137.660156 24.480469 L 128.703125 41.644531 L 133.316406 108.117188 L 135.648438 139.910156 L 133.027344 289.96875 L 108.078125 396.335938 L 98.664062 439.472656 L 80.140625 508.425781 L 67.492188 571.710938 L 60.710938 629.324219 L 41.179688 755.996094 L 37.289062 813.660156 L 26.917969 911.625 L 18.578125 1058.695312 L 21.261719 1070.289062 L 18.277344 1076.011719 L 14.332031 1136.5625 L 16.664062 1168.355469 L 15.152344 1254.925781 L 8.574219 1300.996094 L 4.933594 1344.234375 L 4.128906 1390.40625 L 11.878906 1442.5 L 25.453125 1491.808594 L 42.160156 1526.738281 L 67.628906 1556.050781 L 96.082031 1579.640625 L 133.09375 1609.152344 L 161.75 1621.199219 L 182 1618.664062 L 187.875 1612.996094 L 188.226562 1592.792969 L 171.363281 1566.519531 L 151.566406 1543.082031 L 126.453125 1493.570312 L 123.96875 1470.433594 L 124.421875 1444.464844 L 131 1398.394531 L 136.921875 1389.835938 L 142.242188 1415.910156 L 144.167969 1470.789062 L 149.335938 1505.515625 L 163.464844 1523.082031 L 180.777344 1523.386719 L 192.523438 1512.042969 L 201.882812 1471.796875 L 205.828125 1411.246094 L 207.640625 1307.359375 L 193.816406 1272.476562 L 163.230469 1205.550781 L 155.078125 1176.542969 L 153.101562 1124.550781 L 153.90625 1078.378906 L 163.417969 1029.472656 L 175.769531 983.5 L 185.179688 940.367188 L 206.539062 874.347656 L 234.222656 776.683594 L 261.453125 704.996094 L 267.730469 676.238281 L 282.914062 633.203125 L 301.335938 570.019531 L 316.46875 529.871094 L 325.683594 498.28125 L 329.273438 457.929688 L 335.699219 420.515625 L 339.84375 348.421875 L 349.8125 273.546875 L 359.171875 233.296875 L 377.847656 155.683594 L 380.882812 147.078125 L 378.097656 141.253906 L 357.949219 138.015625 L 355.0625 137.964844 L 346.660156 123.386719 L 332.179688 126.019531 L 332.28125 120.25 L 338.101562 117.464844 L 326.863281 99.949219 L 321.039062 102.734375 L 318.203125 99.796875 L 312.484375 96.808594 L 303.675781 105.316406 L 300.890625 99.496094 L 300.738281 108.152344 L 294.96875 108.050781 L 295.066406 102.28125 L 286.460938 99.242188 L 283.675781 93.421875 L 280.640625 102.027344 L 266.3125 96.003906 L 263.527344 90.183594 L 251.984375 89.980469 L 249.347656 75.503906 L 237.757812 78.1875 L 231.933594 80.972656 L 232.238281 63.65625 L 226.464844 63.554688 L 226.214844 77.984375 L 220.390625 80.769531 L 217.707031 69.175781 L 206.113281 71.859375 L 211.632812 86.390625 L 205.863281 86.289062 L 203.277344 68.925781 L 197.507812 68.824219 L 192.089844 48.523438 L 177.660156 48.269531 L 169.152344 39.460938 L 163.332031 42.246094 L 166.117188 48.070312 L 160.34375 47.96875 L 160.246094 53.742188 L 151.585938 53.589844 L 154.675781 42.097656 L 160.496094 39.3125 L 157.710938 33.488281 L 151.890625 36.273438 L 149.105469 30.453125 L 140.347656 36.074219 L 149.15625 27.566406 Z M 183.179688 62.800781 L 188.800781 71.558594 L 177.355469 65.585938 Z M 171.636719 62.597656 L 165.765625 68.269531 L 162.980469 62.449219 Z M 165.765625 68.269531 L 162.777344 73.992188 Z M 243.425781 84.058594 L 240.441406 89.78125 Z M 249.046875 92.816406 L 248.894531 101.472656 L 243.125 101.371094 L 243.226562 95.601562 L 237.503906 92.613281 Z M 312.179688 114.125 L 309.195312 119.847656 Z M 343.621094 131.992188 L 340.636719 137.714844 Z M 343.371094 146.421875 L 337.496094 152.09375 L 337.597656 146.320312 Z M 1401.515625 52.3125 L 1395.539062 63.757812 L 1395.441406 69.527344 L 1401.210938 69.628906 L 1395.289062 78.183594 L 1392.554688 69.476562 L 1386.832031 66.492188 L 1384.097656 57.78125 L 1372.40625 66.238281 L 1369.417969 71.960938 L 1357.875 71.757812 L 1357.773438 77.53125 L 1366.429688 77.679688 L 1351.902344 83.199219 L 1351.800781 88.972656 L 1345.980469 91.757812 L 1343.09375 91.707031 L 1340.308594 85.886719 L 1331.601562 88.621094 L 1328.664062 91.453125 L 1325.679688 97.175781 L 1323.042969 82.695312 L 1317.121094 91.253906 L 1316.972656 99.910156 L 1311.199219 99.808594 L 1308.464844 91.101562 L 1302.644531 93.886719 L 1299.457031 111.152344 L 1285.078125 108.015625 L 1282.089844 113.734375 L 1270.546875 113.535156 L 1261.839844 116.269531 L 1247.261719 124.671875 L 1244.476562 118.851562 L 1238.652344 121.636719 L 1235.867188 115.816406 L 1229.945312 124.371094 L 1227.210938 115.664062 L 1218.503906 118.398438 L 1212.480469 132.726562 L 1215.214844 141.433594 L 1200.9375 132.523438 L 1192.230469 135.257812 L 1197.851562 144.015625 L 1188.992188 155.410156 L 1192.027344 146.800781 L 1189.242188 140.980469 L 1183.421875 143.765625 L 1177.449219 155.207031 L 1168.691406 160.828125 L 1173.957031 189.785156 L 1184.644531 239.046875 L 1189.761719 276.660156 L 1194.980469 308.503906 L 1202.277344 386.570312 L 1203.902344 458.765625 L 1208.765625 510.808594 L 1227.808594 577.53125 L 1236.011719 603.65625 L 1249.535156 655.851562 L 1260.472656 690.679688 L 1271.210938 737.054688 L 1293.1875 800.941406 L 1322.816406 922.699219 L 1339.171875 977.828125 L 1346.972656 1027.039062 L 1355.078125 1058.933594 L 1360.445312 1082.117188 L 1364.757812 1165.90625 L 1355.292969 1211.925781 L 1322.089844 1295.058594 L 1307.207031 1320.777344 L 1298.097656 1346.597656 L 1297.59375 1375.457031 L 1299.976562 1404.363281 L 1305.59375 1413.121094 L 1304.234375 1491.035156 L 1309.554688 1517.109375 L 1315.125 1528.753906 L 1320.84375 1531.738281 L 1341.042969 1532.09375 L 1352.992188 1509.207031 L 1357.4375 1419.800781 L 1363.460938 1405.472656 L 1369.234375 1405.574219 L 1374.703125 1422.988281 L 1383.105469 1437.566406 L 1379.214844 1495.230469 L 1372.789062 1532.644531 L 1363.828125 1549.808594 L 1352.085938 1561.152344 L 1337.402344 1575.328125 L 1328.59375 1583.832031 L 1322.421875 1606.820312 L 1325.003906 1624.183594 L 1327.738281 1632.890625 L 1350.824219 1633.292969 L 1353.863281 1624.6875 L 1362.570312 1621.953125 L 1380.285156 1599.167969 L 1394.96875 1584.992188 L 1395.066406 1579.222656 L 1415.367188 1573.800781 L 1418.457031 1562.308594 L 1427.113281 1562.460938 L 1439.058594 1539.574219 L 1447.96875 1525.296875 L 1459.914062 1502.414062 L 1469.277344 1462.164062 L 1472.714844 1430.472656 L 1476.257812 1393.007812 L 1477.617188 1315.09375 L 1484.144531 1271.90625 L 1485.453125 1196.878906 L 1491.226562 1196.980469 L 1497.199219 1185.539062 L 1498.558594 1107.621094 L 1496.175781 1078.714844 L 1494.902344 986.320312 L 1493.125 922.785156 L 1488.359375 864.96875 L 1486.027344 833.175781 L 1486.632812 798.546875 L 1481.667969 752.273438 L 1476.804688 700.230469 L 1469.101562 645.25 L 1461.703125 572.957031 L 1453.851562 526.632812 L 1445.902344 486.082031 L 1437.648438 462.84375 L 1415.71875 396.070312 L 1402.046875 352.53125 L 1403.054688 294.816406 L 1407.5 205.410156 L 1410.941406 173.714844 L 1421.3125 75.753906 L 1421.5625 61.324219 Z M 1386.53125 83.804688 L 1383.445312 95.296875 L 1380.757812 83.703125 Z M 1372.101562 83.554688 L 1372 89.324219 L 1363.292969 92.058594 L 1363.394531 86.289062 Z M 1340.105469 97.429688 L 1342.792969 109.019531 L 1334.285156 100.210938 Z M 1308.261719 102.644531 L 1305.277344 108.367188 Z M 1311 111.351562 L 1307.960938 119.960938 L 1302.191406 119.859375 L 1299.457031 111.152344 Z M 1241.386719 130.34375 L 1238.402344 136.066406 L 1235.617188 130.242188 Z M 1215.113281 147.207031 L 1203.46875 152.773438 L 1206.457031 147.054688 Z M 1209.089844 161.53125 L 1206.105469 167.253906 Z M 1424.378906 1553.753906 L 1421.390625 1559.472656 Z M 1416.445312 23.707031 L 1402.015625 23.457031 L 1398.929688 34.949219 L 1419.078125 38.1875 L 1424.953125 32.515625 Z M 146.773438 -1.339844 L 140.949219 1.445312 L 143.683594 10.152344 L 152.394531 7.417969 Z M 146.773438 -1.339844 " fill-opacity="1" fill-rule="nonzero"/></g></g></g></g></g></g></g></g></g></svg>