<svg width="472" height="2150" viewBox="0 0 472 2150" fill="none" xmlns="http://www.w3.org/2000/svg">
<path d="M161.13 25.3633L143.552 34.1549L134.766 51.7279L140.625 133.754L143.552 165.978V394.473L120.115 502.863L99.6094 599.535L79.099 678.629L64.4532 760.655L55.6615 845.608L35.1563 1000.87L23.4375 1159.06L17.5782 1249.87L11.7188 1378.77V1431.5L8.79169 1484.23V1689.29L2.93231 1730.3L3.05176e-05 1785.96V1853.34L11.7188 1926.57L32.224 1991.02L55.6615 2034.96L64.4532 2046.68H70.3125L76.1719 2058.4L96.6771 2078.91L137.693 2111.13L181.641 2143.35L199.219 2149.21H246.094L249.021 2146.28V2114.06L225.583 2081.83L199.219 2049.61L166.99 1988.09L164.063 1973.45V1903.14L172.849 1853.34L175.781 1850.41L181.641 1873.84L190.427 1976.37L196.286 2002.74L213.865 2023.24H240.234L254.88 2008.6L263.672 1967.59L269.531 1879.7V1736.16L243.161 1674.64L222.656 1633.63L205.078 1592.62L199.219 1572.11L193.359 1501.81V1431.5L208.005 1352.4L222.656 1290.88L234.375 1238.16L260.74 1153.2L292.969 1027.23L313.474 974.504L331.052 918.843L336.911 889.551L360.349 816.317L377.927 751.869L401.365 681.561L407.224 661.056L413.083 593.676L418.943 555.593L424.802 447.202L436.521 347.603L451.172 286.087L465.818 218.707L471.677 186.483L468.75 180.624L442.38 177.697L433.594 168.905L427.734 160.118L407.224 163.046L413.083 151.332L418.943 145.473L410.156 142.54L395.505 127.895L377.927 124.967L366.208 136.681L357.422 139.613V130.822L339.844 124.967V130.822L316.406 124.967L313.474 116.176H298.828L295.896 98.6029L278.318 101.53L272.458 104.457V81.0247H266.599V101.53L254.88 104.457V89.8112L240.234 92.7435L243.161 107.389L246.094 113.249H237.302L234.375 89.8112H225.583L219.724 63.4466L199.219 60.5195L190.427 51.7279L181.641 54.6602L184.568 63.4466H178.708V69.306L166.99 66.3789L169.922 54.6602L175.781 48.8008L158.203 40.0091L161.13 25.3633ZM208.005 81.0247L213.865 92.7435L199.219 86.8841L202.146 81.0247H208.005ZM190.427 81.0247L187.5 89.8112L178.708 81.0247H190.427ZM295.896 119.108V130.822H287.109V122.035L281.25 119.108H295.896ZM421.875 189.415L416.016 195.27V189.415H421.875Z" fill="#FDE0C8"/>
<path d="M316.406 96.6719L307.615 99.6042L310.547 108.391L319.333 105.458L316.406 96.6719Z" fill="#FDE2CA"/>
<path d="M158.203 0H152.344V11.7188H161.13L158.203 0Z" fill="#FDE1C8"/>
<path d="M439.453 152.332L427.734 155.259L433.594 161.118L439.453 158.191V152.332Z" fill="#FEE2CA"/>
<path d="M462.891 166.977L454.099 175.763L462.891 172.836V166.977Z" fill="#FEE6CE"/>
<path d="M281.25 87.8828L275.391 90.8099L281.25 93.7422V87.8828Z" fill="#FFE7CE"/>
</svg>
