<svg width="1551" height="2144" viewBox="0 0 1551 2144" fill="none" xmlns="http://www.w3.org/2000/svg">
<path d="M702.896 0H847.526L885.13 5.78646L931.411 8.67708L989.26 23.1406L1055.79 46.2812L1096.29 63.6354L1151.24 92.5625L1209.1 124.38L1269.84 161.984L1307.45 193.802L1330.59 214.052L1368.19 251.651L1397.11 289.255L1408.69 306.615V312.396H1414.47L1437.61 352.896L1478.11 448.349L1501.25 500.417L1524.39 578.516L1535.96 630.583L1541.74 665.292L1544.64 708.682L1550.42 734.714V873.557L1544.64 902.484L1541.74 957.443L1535.96 989.26L1530.17 1023.97L1515.71 1093.4L1492.57 1177.28L1481 1211.99L1449.18 1304.55L1417.36 1376.86L1402.9 1405.79L1391.33 1434.72L1376.87 1463.65L1359.51 1501.24L1342.16 1544.64L1327.69 1573.56L1298.77 1645.88L1275.62 1689.27L1258.27 1721.08L1238.03 1755.79L1206.2 1802.07L1200.42 1831L1197.53 1955.38L1191.74 1984.31L1185.96 1992.98V2010.34H1171.49V2004.56L1159.92 2010.34H1151.24L1136.78 2016.12L1131 2013.23L1133.89 2024.8L1119.43 2021.91L1122.32 2039.27L1113.64 2053.73L1110.75 2059.52H1104.96L1102.07 2050.84L1087.61 2047.94V2042.16H1078.93V2047.94L1067.36 2050.84V2059.52L1073.15 2065.3L1070.26 2068.19L1076.04 2071.08V2079.76L1061.58 2085.55V2076.87H1055.79L1052.9 2085.55L1032.65 2082.66L1026.86 2088.44L1018.19 2085.55L1021.08 2076.87L1009.51 2082.66L1006.62 2094.22L997.938 2097.12V2091.33H992.156V2100.01L980.583 2097.12L971.906 2102.9L945.875 2105.8L937.198 2111.58L916.948 2114.47L902.484 2128.94L893.807 2131.83L879.344 2123.15L867.776 2126.04L861.99 2134.72L818.599 2131.83L815.708 2140.51L798.354 2143.4L792.568 2137.61L780.995 2140.51H769.427L757.854 2137.61L746.286 2143.4V2137.61L734.714 2140.51L728.932 2134.72H691.328L685.542 2126.04L673.969 2128.94L653.724 2134.72L642.151 2120.26L636.37 2117.36V2111.58L607.443 2108.69L595.87 2100.01L578.516 2102.9L575.625 2097.12L566.948 2094.22V2100.01H552.484V2088.44L546.698 2085.55L543.807 2079.76H535.125L540.911 2085.55H535.125L532.234 2102.9L526.448 2097.12L520.667 2079.76L509.094 2085.55L485.953 2082.66L477.276 2073.98L480.167 2071.08H497.526V2065.3H483.062V2050.84L468.599 2047.94L459.922 2050.84V2045.05H454.135L448.349 2059.52H442.562L433.885 2027.7L422.318 2024.8V2016.12L410.745 2021.91L402.068 2024.8L384.714 2019.02V2007.45H364.464L376.036 2001.66H399.177V1995.88L393.391 1992.98L396.281 1987.2L387.604 1990.09L381.823 1998.77V1992.98L370.25 1995.88L361.573 1987.2H358.682L352.896 1926.46L350 1914.89L347.109 1833.9L344.219 1802.07L318.182 1764.47L274.797 1689.27L251.656 1645.88L234.297 1605.38L216.943 1561.99L205.375 1533.07L182.234 1483.89L167.771 1454.96L153.307 1420.26L133.057 1376.86L118.594 1345.05L98.349 1292.98L83.8854 1255.38L60.7448 1185.96L49.1771 1151.24L31.8177 1081.82L23.1406 1047.11L14.4635 997.938L8.67708 945.87L5.78646 931.411L2.89583 882.234L0 861.99V746.286L5.78646 685.542L11.5729 659.505L17.3542 621.901L34.7135 549.589L57.8542 480.167L72.3177 448.349L101.24 381.818L124.38 332.646L153.307 289.255L188.016 248.76L208.266 225.62L245.87 188.016L286.365 159.089L318.182 138.844L378.927 104.13L407.854 86.776L468.599 57.849L538.021 28.9271L619.01 8.67708L668.188 5.78646L702.896 0ZM1180.17 1966.95V1972.74H1185.96V1966.95H1180.17ZM367.359 1969.84L370.25 1978.52L373.141 1969.84H367.359ZM381.823 1969.84L384.714 1981.42L393.391 1984.31L396.281 1978.52H390.5L387.604 1969.84H381.823ZM1162.82 1969.84L1159.92 1981.42L1165.71 1990.09L1174.39 1981.42L1168.6 1969.84H1162.82ZM1145.46 1992.98L1148.35 2004.56L1151.24 1995.88L1145.46 1992.98ZM1159.92 1992.98L1162.82 2001.66L1171.49 1998.77V1992.98H1159.92ZM422.318 1998.77L428.104 2004.56V1998.77H422.318ZM1125.21 1998.77V2004.56H1131V1998.77H1125.21ZM396.281 2004.56L390.5 2016.12L402.068 2010.34V2004.56H396.281ZM451.245 2007.45V2013.23L457.026 2010.34L451.245 2007.45ZM1099.18 2007.45V2013.23L1104.96 2010.34L1099.18 2007.45ZM399.177 2013.23V2019.02L404.964 2016.12L399.177 2013.23ZM448.349 2021.91L451.245 2027.7L454.135 2021.91H448.349ZM448.349 2030.59V2039.27H454.135V2030.59H448.349ZM1104.96 2030.59L1107.86 2039.27L1110.75 2030.59H1104.96ZM503.307 2036.38L500.417 2045.05H511.984V2036.38H503.307ZM1047.11 2039.27L1052.9 2045.05V2039.27H1047.11ZM509.094 2056.62L506.203 2068.19L514.88 2065.3V2056.62H509.094ZM1041.33 2056.62L1038.44 2068.19H1047.11L1044.22 2056.62H1041.33ZM526.448 2065.3L523.557 2073.98H532.234L529.344 2065.3H526.448ZM1021.08 2065.3V2073.98L1032.65 2068.19L1021.08 2065.3ZM564.052 2068.19L561.161 2073.98H578.516L581.406 2068.19H564.052ZM974.797 2068.19L977.693 2073.98L989.26 2071.08V2068.19H974.797ZM986.37 2073.98V2082.66H995.047L992.156 2073.98H986.37ZM558.266 2076.87V2082.66L569.839 2076.87H558.266ZM610.333 2085.55L607.443 2091.33H613.229L610.333 2085.55ZM948.766 2088.44L951.656 2094.22L957.443 2088.44H948.766ZM749.177 2126.04V2131.83L754.964 2128.94L749.177 2126.04Z" fill="#FBE1CA"/>
<path d="M1154.14 2013.23H1171.5L1159.92 2030.59H1154.14V2024.8L1145.46 2021.91L1154.14 2013.23Z" fill="#FBE2CB"/>
<path d="M1136.78 2021.91L1145.46 2024.8L1142.57 2036.37L1133.89 2045.05H1125.21V2036.37H1133.89L1136.78 2021.91Z" fill="#FBE1CB"/>
<path d="M457.026 2065.3H462.813L468.599 2079.76L457.026 2082.65V2065.3Z" fill="#FBE3CB"/>
<path d="M425.208 2030.59H430.995L433.886 2039.26L422.318 2045.05V2036.37L425.208 2030.59Z" fill="#FCE3CB"/>
<path d="M1076.04 2053.73L1084.72 2056.62L1081.82 2068.19H1076.04V2053.73Z" fill="#FDE5CE"/>
<path d="M465.703 2056.62L480.167 2059.51L477.276 2065.3L465.703 2062.4V2056.62Z" fill="#FBE2CB"/>
<path d="M410.745 2021.91H416.532L419.422 2030.58L413.641 2033.47L410.745 2021.91Z" fill="#FCE3CC"/>
<path d="M619.011 2131.83L624.797 2134.72V2140.51H619.011V2131.83Z" fill="#FCE6CF"/>
<path d="M1093.4 2056.62L1099.18 2062.4L1093.4 2068.19V2056.62Z" fill="#FCE3CD"/>
<path d="M945.875 2105.8H951.656V2111.58H945.875V2105.8Z" fill="#FEE4CD"/>
<path d="M1148.35 2030.59H1154.14V2036.37H1148.35V2030.59Z" fill="#FCE2CB"/>
<path d="M590.089 2100.01L595.87 2102.9L590.089 2105.79V2100.01Z" fill="#FDE9D1"/>
<path d="M1090.5 2103.98L1096.29 2109.76H1090.5V2103.98Z" fill="#FCE2CB"/>
</svg>
