<svg width="857" height="2196" viewBox="0 0 857 2196" fill="none" xmlns="http://www.w3.org/2000/svg">
<path d="M469.307 66.7246L473.755 75.6204L475.979 84.5163L480.427 95.6413H489.323V91.1934L482.651 88.9642L487.099 86.7402L504.896 91.1934L502.667 100.089L495.995 97.8652V91.1934L493.771 100.089H498.219V111.209L500.443 113.433V102.313L507.12 95.6413V91.1934L502.667 86.7402L511.568 80.0684L513.792 86.7402H518.24L520.464 91.1934H524.911L527.135 86.7402L531.583 91.1934L533.807 84.5163L542.703 88.9642L544.927 97.8652V102.313L551.599 95.6413L556.052 93.4173V88.9642H560.5L564.948 104.537L567.172 100.089H571.62V111.209L587.188 108.985L600.531 100.089L604.984 104.537L602.76 108.985H598.307L602.76 117.881L607.208 120.105L609.432 106.761L613.88 102.313L604.984 93.4173V86.7402L613.88 82.2923L616.104 86.7402L620.552 84.5163L625 80.0684H638.344L642.792 91.1934H645.016L653.917 97.8652L656.141 106.761L662.813 104.537L673.932 106.761L678.38 111.209H689.5L687.276 120.105L685.052 124.553L693.948 115.657V106.761H709.521L716.193 111.209L720.641 115.657V122.329L733.984 120.105L740.656 115.657V122.329L747.333 124.553L745.104 131.225L742.88 133.449L751.781 137.896V142.35L758.453 140.126L760.677 149.021L767.349 153.469V157.917L774.021 166.813L782.917 169.037L787.365 166.813L794.036 189.058H798.49L818.505 260.23L834.073 315.834L847.422 378.11L854.094 440.391L856.318 482.652V580.516L851.87 620.548L831.849 722.865L820.729 816.277L794.036 945.282L774.021 1018.68L756.229 1078.74L745.104 1125.44L738.432 1161.03L729.536 1252.22L727.313 1318.95V1381.22L722.865 1421.26L720.641 1436.83V1539.14L718.417 1637.01L709.521 1730.42L696.172 1799.38L671.708 1901.69L645.016 1997.33L638.344 2032.92L627.224 2115.21L616.104 2168.59L609.432 2159.69H607.208L602.76 2168.59L591.635 2170.81L587.188 2166.37L573.844 2168.59L564.948 2177.49L551.599 2175.26L547.151 2168.59V2161.92L540.479 2164.14L538.255 2168.59H533.807L529.359 2173.04H518.24L522.688 2168.59H529.359L522.688 2164.14L518.24 2166.37H516.016L511.568 2175.26L509.344 2161.92L504.896 2164.14L507.12 2173.04L502.667 2175.26L498.219 2179.71V2175.26H493.771V2170.81H498.219V2161.92L493.771 2166.37L487.099 1997.33L480.427 1906.14L475.979 1839.41V1734.87L480.427 1683.71L509.344 1525.8L511.568 1501.33L487.099 1421.26L475.979 1363.43L469.307 1303.38L467.083 1265.57L464.859 1167.7L453.734 1065.39L444.839 965.303L433.719 858.537V689.501L435.943 647.24H420.375L422.599 671.704V871.886L409.255 996.438L400.354 1100.97L393.682 1152.13L391.458 1183.27L389.234 1283.36L382.563 1354.54L371.443 1416.81L344.75 1505.78L375.891 1677.04L380.339 1723.75V1854.98L369.219 2008.45L364.771 2130.78L362.547 2161.92H353.646L351.422 2166.37L340.302 2164.14L333.63 2166.37L329.182 2164.14V2168.59L320.286 2170.81L322.51 2161.92L306.938 2177.49H293.594L289.146 2175.26L286.922 2168.59L271.354 2166.37L269.13 2170.81H262.458L253.557 2161.92L255.781 2155.25H251.333L249.109 2166.37L242.438 2170.81L240.214 2164.14L226.87 2095.19L215.75 2012.9L197.953 1943.95L180.161 1879.44L153.469 1759.34L146.797 1710.41L140.125 1630.33L137.901 1536.92V1434.6L133.453 1410.14L131.229 1381.22V1278.91L124.557 1203.29L117.885 1149.91L106.76 1096.53L86.7448 1027.58L71.1771 974.199L57.8281 920.818L35.5885 809.605L24.4688 718.412L20.0208 696.173L15.5677 656.136L8.89583 625.001L4.44792 593.86L0 571.615V509.339L4.44792 422.594L13.3438 358.094L22.2448 320.282L35.5885 286.923L53.3802 226.865L62.276 189.058L68.9531 182.381H64.5L68.9531 173.485L73.401 175.709L75.625 171.261L91.1927 166.813L93.4167 160.141L95.6406 166.813H102.313V160.141L106.76 157.917L102.313 146.798L106.76 137.896H120.109L115.656 124.553L129.005 120.105L140.125 122.329V117.881H144.573L146.797 108.985L157.917 106.761L162.365 102.313L166.818 106.761L169.042 115.657L173.49 122.329L184.609 120.105H191.281L189.057 113.433L184.609 108.985L200.177 104.537L202.401 100.089L204.625 111.209L206.849 104.537L204.625 100.089L215.75 91.1934L222.422 84.5163L224.646 77.8444L244.661 82.2923L246.885 75.6204L251.333 82.2923L258.005 84.5163L253.557 97.8652L246.885 104.537L253.557 106.761L258.005 117.881L260.229 108.985L262.458 104.537H271.354L269.13 97.8652L280.25 95.6413L278.026 91.1934L266.906 95.6413L269.13 86.7402H273.578L275.802 80.0684H282.474L284.698 75.6204L289.146 77.8444V80.0684L298.042 82.2923V91.1934L284.698 88.9642L286.922 95.6413L291.37 97.8652L286.922 108.985L291.37 111.209L293.594 95.6413H302.49L304.714 91.1934L315.839 95.6413L313.615 102.313H318.063L320.286 97.8652L333.63 95.6413L331.406 84.5163L338.078 86.7402V93.4173L349.198 80.0684H353.646V86.7402L360.323 88.9642L355.87 91.1934V100.089H364.771L366.995 97.8652L358.094 100.089L362.547 91.1934L364.771 84.5163H358.094L360.323 80.0684L371.443 82.2923V88.9642L378.115 86.7402V91.1934H373.667V95.6413H382.563L380.339 82.2923L375.891 80.0684L389.234 77.8444L404.802 75.6204V80.0684L418.151 82.2923L422.599 80.0684V71.1725L435.943 75.6204H440.391L442.615 80.0684L449.286 82.2923L453.734 77.8444L455.958 82.2923L467.083 71.1725L469.307 66.7246ZM224.646 82.2923L229.094 86.7402V82.2923H224.646ZM398.13 82.2923L393.682 86.7402L384.786 91.1934L387.01 97.8652L398.13 95.6413L402.578 93.4173L400.354 91.1934L404.802 88.9642L402.578 82.2923H398.13ZM460.411 82.2923L464.859 91.1934L475.979 97.8652V91.1934L469.307 88.9642L464.859 82.2923H460.411ZM631.672 82.2923L636.12 86.7402L638.344 82.2923H631.672ZM240.214 84.5163V88.9642L246.885 86.7402L240.214 84.5163ZM382.563 84.5163L384.786 88.9642L387.01 84.5163H382.563ZM455.958 84.5163V88.9642L460.411 86.7402L455.958 84.5163ZM418.151 86.7402L420.375 93.4173L427.047 95.6413V86.7402H418.151ZM435.943 86.7402L431.495 93.4173L438.167 95.6413L442.615 93.4173L440.391 86.7402H435.943ZM511.568 88.9642L516.016 93.4173V88.9642H511.568ZM249.109 91.1934L253.557 95.6413V91.1934H249.109ZM460.411 91.1934L462.635 95.6413L464.859 91.1934H460.411ZM527.135 91.1934V97.8652L533.807 100.089V95.6413H529.359L527.135 91.1934ZM222.422 95.6413V104.537H226.87V95.6413H222.422ZM237.99 95.6413L242.438 100.089V95.6413H237.99ZM349.198 97.8652L346.974 102.313H351.422L349.198 97.8652ZM444.839 97.8652L449.286 102.313V97.8652H444.839ZM509.344 97.8652V102.313L513.792 100.089L509.344 97.8652ZM636.12 97.8652L633.896 104.537L640.568 102.313L636.12 97.8652ZM298.042 100.089V104.537L302.49 102.313L298.042 100.089ZM211.297 102.313L215.75 108.985V102.313H211.297ZM280.25 102.313L282.474 108.985V102.313H280.25ZM322.51 102.313L324.734 108.985V102.313H322.51ZM531.583 102.313L538.255 108.985V102.313H531.583ZM620.552 102.313L618.328 106.761H625V102.313H620.552ZM647.24 102.313L649.464 106.761L651.693 102.313H647.24ZM362.547 108.985V113.433L371.443 111.209L362.547 108.985ZM151.245 111.209V115.657L155.693 113.433L151.245 111.209ZM157.917 111.209L160.141 117.881V111.209H157.917ZM264.682 111.209L269.13 115.657V111.209H264.682ZM313.615 111.209L311.391 122.329L315.839 124.553L318.063 115.657L313.615 111.209ZM544.927 111.209L542.703 117.881L549.375 124.553L551.599 120.105L549.375 111.209H544.927ZM702.849 111.209L698.396 117.881L705.073 115.657L702.849 111.209ZM242.438 113.433V117.881L246.885 115.657L242.438 113.433ZM616.104 113.433V120.105L620.552 115.657L616.104 113.433ZM671.708 113.433L669.484 120.105L673.932 124.553L678.38 117.881L671.708 113.433ZM200.177 115.657V120.105L204.625 117.881L200.177 115.657ZM226.87 115.657L229.094 120.105L235.766 117.881L226.87 115.657ZM271.354 115.657L273.578 122.329V115.657H271.354ZM302.49 115.657L306.938 120.105V115.657H302.49ZM335.854 115.657L340.302 122.329V115.657H335.854ZM344.75 115.657L349.198 120.105V115.657H344.75ZM429.271 115.657L427.047 120.105H433.719V115.657H429.271ZM587.188 115.657L589.411 122.329V115.657H587.188ZM631.672 115.657V120.105L627.224 124.553L638.344 129.001L633.896 115.657H631.672ZM569.396 117.881L573.844 122.329V117.881H569.396ZM680.604 117.881L682.828 122.329L685.052 117.881H680.604ZM146.797 120.105L144.573 124.553L149.021 131.225L151.245 124.553L146.797 120.105ZM560.5 120.105L562.724 126.777L567.172 124.553L564.948 120.105H560.5ZM711.745 120.105L709.521 126.777L716.193 124.553L711.745 120.105ZM224.646 122.329L226.87 129.001V124.553L231.318 122.329H224.646ZM231.318 124.553L229.094 129.001L235.766 131.225L233.542 124.553H231.318ZM258.005 129.001L262.458 133.449V129.001H258.005ZM278.026 129.001V133.449L282.474 131.225L278.026 129.001ZM580.516 129.001V133.449H584.964V129.001H580.516ZM571.62 129.001L567.172 133.449H573.844L571.62 129.001ZM126.781 137.896L122.333 142.35L131.229 140.126L126.781 137.896ZM309.161 137.896L306.938 144.574L313.615 142.35L309.161 137.896ZM549.375 140.126V144.574L553.828 142.35L549.375 140.126ZM569.396 140.126L567.172 144.574H571.62L569.396 140.126ZM311.391 144.574L313.615 149.021L315.839 144.574H311.391ZM547.151 144.574V149.021L551.599 146.798L547.151 144.574ZM202.401 149.021L204.625 153.469L209.073 149.021H202.401ZM756.229 153.469L760.677 162.365V153.469H756.229ZM751.781 157.917L756.229 162.365V157.917H751.781ZM762.901 160.141L760.677 166.813H767.349L765.125 160.141H762.901ZM140.125 164.589L137.901 173.485H144.573L140.125 164.589ZM720.641 164.589L718.417 173.485H725.089L722.865 164.589H720.641ZM509.344 2144.13L511.568 2150.8L516.016 2148.57L509.344 2144.13ZM340.302 2146.35V2153.02L349.198 2150.8L340.302 2146.35ZM520.464 2146.35V2150.8H516.016L518.24 2155.25L522.688 2153.02L520.464 2146.35ZM502.667 2148.57L500.443 2155.25L509.344 2157.47L507.12 2150.8L502.667 2148.57ZM351.422 2150.8L353.646 2157.47V2150.8H351.422ZM331.406 2153.02L329.182 2159.69H335.854L331.406 2153.02ZM529.359 2155.25L527.135 2161.92L533.807 2159.69V2155.25H529.359ZM295.818 2168.59L293.594 2173.04H298.042L295.818 2168.59ZM562.724 2168.59V2173.04L569.396 2170.81L562.724 2168.59Z" fill="#FEE0C8"/>
<path d="M573.844 75.6211L580.515 80.069H587.187L596.083 88.9648L593.859 95.6419L580.515 88.9648L584.963 97.8659L578.292 108.986L573.844 106.762L571.62 95.6419L576.068 86.7409L567.172 88.9648L564.948 80.069H573.844V75.6211ZM576.068 80.069L567.172 84.5169H578.292L576.068 80.069Z" fill="#FEE0C8"/>
<path d="M556.052 51.1563H567.172L576.068 60.0521V64.5L584.964 66.724V71.1719H580.516L582.74 77.8438H578.292L573.844 73.3958L569.396 75.6198L558.276 64.5L560.5 55.6042L556.052 51.1563ZM275.802 60.0521H284.698V66.724L289.146 62.276H295.818L300.266 71.1719L306.938 68.9479V80.0677L300.266 82.2917L293.594 75.6198L278.026 71.1719V64.5L273.578 62.276L275.802 60.0521ZM531.583 44.4844H536.031L533.807 51.1563L520.464 57.8281L513.792 51.1563L516.016 46.7083H522.688L524.911 48.9323L531.583 44.4844ZM631.672 57.8281L640.568 62.276L651.693 64.5V68.9479H647.24V64.5L636.12 73.3958L631.672 57.8281ZM598.307 71.1719L604.984 73.3958L600.531 86.7396L589.411 84.5156L591.635 73.3958L596.083 77.8438L598.307 71.1719ZM504.896 57.8281L509.344 60.0521L513.792 66.724L520.464 64.5L522.688 73.3958L513.792 71.1719V77.8438L509.344 75.6198L504.896 57.8281Z" fill="#FEE0C8"/>
<path d="M293.594 51.1563H306.937L302.489 55.6042V66.724L295.818 60.0521L289.146 55.6042H293.594V51.1563ZM502.667 40.0312L511.568 42.2604L516.015 46.7083L511.568 51.1563L513.792 55.6042L507.12 57.8281L502.667 40.0312ZM322.51 86.7396L333.63 91.1927L326.958 97.8646L318.062 95.6406V88.9635L322.51 86.7396ZM346.974 55.6042L358.094 60.0521L349.198 64.5L333.63 62.276V57.8281H344.75L346.974 55.6042ZM556.052 68.9479L564.948 73.3958L562.724 82.2917L551.599 77.8438L556.052 75.6198V68.9479ZM262.458 66.724L271.354 71.1719L269.13 80.0677H260.229L262.458 66.724ZM264.682 71.1719L262.458 77.8438L269.13 75.6198L264.682 71.1719Z" fill="#FEE0C8"/>
<path d="M326.958 46.7083H338.078L344.75 51.1563L342.526 57.8281L329.182 53.3802L326.958 46.7083ZM184.609 82.2917L193.505 84.5156L182.385 93.4167L175.713 86.7396L184.609 82.2917ZM160.14 77.8438L162.364 84.5156H166.817L169.041 93.4167L157.916 95.6406V91.1927L162.364 88.9635L160.14 77.8438ZM226.869 60.0521L231.317 62.276L226.869 71.1719L217.974 73.3958L215.75 68.9479H220.198V64.5L226.869 60.0521ZM427.047 57.8281L435.942 60.0521L431.494 71.1719L427.047 66.724V57.8281ZM671.708 62.276L682.828 66.724L678.38 71.1719H665.036L667.26 66.724L671.708 62.276ZM498.218 44.4844L502.666 46.7083L493.771 51.1563L489.323 60.0521L487.099 53.3802V48.9323L498.218 44.4844ZM524.911 71.1719L531.583 73.3958L527.135 82.2917L520.463 80.0677L524.911 71.1719ZM409.255 46.7083L418.151 48.9323L409.255 57.8281H402.578V53.3802L409.255 46.7083ZM549.375 42.2604L553.828 48.9323V60.0521L551.599 55.6042H547.151L544.927 48.9323L549.375 42.2604ZM180.161 111.208L186.833 115.656L173.489 120.104V113.432L180.161 111.208ZM135.677 97.8646L146.797 102.313L142.349 111.208L140.125 102.313H135.677V97.8646ZM696.172 84.5156L702.849 86.7396L700.625 88.9635L705.073 93.4167L696.172 95.6406L693.948 88.9635L696.172 84.5156ZM340.302 71.1719L342.526 77.8438L333.63 82.2917L331.406 73.3958L340.302 71.1719ZM184.609 95.6406L189.057 100.089H184.609L182.385 108.984L175.713 106.76L177.937 102.313H182.385L184.609 95.6406ZM587.187 95.6406L593.859 97.8646L589.411 106.76L582.739 102.313L587.187 95.6406ZM673.932 82.2917L685.052 84.5156V91.1927L676.156 88.9635L671.708 84.5156L673.932 82.2917ZM353.646 64.5L358.093 66.724L346.974 75.6198L342.526 68.9479L353.646 64.5ZM562.724 42.2604L578.291 44.4844L580.515 48.9323H564.948L562.724 42.2604ZM229.093 33.3594L233.541 40.0313L229.093 48.9323L224.646 44.4844L226.869 35.5833L229.093 33.3594ZM95.6403 149.021L102.312 151.245L100.088 162.365L95.6403 160.141V149.021ZM720.64 97.8646L725.088 100.089L720.64 111.208L716.192 102.313H720.64V97.8646ZM647.239 77.8438L651.692 86.7396L642.791 88.9635L647.239 77.8438ZM213.521 77.8438L220.198 86.7396L209.073 88.9635L213.521 86.7396L211.297 80.0677L213.521 77.8438ZM77.8486 137.896H84.5205L86.7445 144.573L77.8486 146.797V137.896ZM262.458 82.2917L271.354 84.5156L264.682 91.1927L260.229 88.9635L262.458 82.2917ZM458.187 66.724H464.859L462.635 77.8438L458.187 75.6198V66.724ZM291.369 42.2604L295.817 46.7083L280.25 51.1563V46.7083L291.369 42.2604ZM767.349 137.896H774.021L771.797 142.349L762.901 149.021L767.349 137.896ZM709.521 84.5156H713.968L711.744 93.4167L705.073 88.9635L709.521 84.5156ZM475.979 77.8438L487.099 80.0677L478.203 86.7396L473.755 80.0677L475.979 77.8438ZM660.588 77.8438L662.812 82.2917L671.708 84.5156H658.364L656.14 80.0677L660.588 77.8438ZM415.927 64.5H418.151V80.0677L413.703 77.8438L415.927 64.5ZM186.833 60.0521L195.729 64.5L197.953 71.1719H193.505V66.724L186.833 64.5V60.0521ZM364.771 46.7083L375.89 48.9323L373.666 53.3802H366.994L364.771 46.7083ZM351.422 42.2604L358.093 44.4844V48.9323L351.422 51.1563L346.974 44.4844L351.422 42.2604ZM604.984 2168.59H609.432L611.656 2177.49L607.208 2179.71L604.984 2168.59ZM778.468 137.896H782.916L780.692 146.797L776.244 144.573L778.468 137.896ZM705.073 93.4167L711.744 97.8646L713.968 104.536L707.297 102.313L705.073 93.4167ZM547.151 82.2917H553.828L556.052 88.9635H547.151V82.2917ZM493.771 80.0677H504.896V84.5156H491.547L493.771 80.0677Z" fill="#FEE0C8"/>
<path d="M649.463 71.1719V77.8438L642.791 82.2917L645.015 73.3958L649.463 71.1719ZM493.771 68.9479V75.6198L484.875 73.3958L493.771 68.9479ZM444.838 68.9479L449.286 73.3958V80.0677H444.838L442.614 71.1719L444.838 68.9479ZM513.791 55.6042L518.239 62.276H513.791L511.567 66.724L509.343 57.8281L513.791 55.6042ZM375.89 53.3802L380.338 62.276H373.666L371.442 55.6042L375.89 53.3802ZM313.614 46.7083L315.838 53.3802L306.937 55.6042L309.161 48.9323L313.614 46.7083ZM582.739 2168.59L587.187 2170.81L582.739 2179.71L580.515 2170.81L582.739 2168.59ZM358.093 2164.14H362.547L360.323 2173.04H355.869L358.093 2164.14ZM151.244 95.6406H155.692V102.313L149.021 104.536L151.244 95.6406ZM149.021 84.5156L157.916 88.9635L151.244 91.1927L149.021 84.5156ZM731.76 80.0677H742.88V84.5156H731.76V80.0677ZM315.838 75.6198L320.286 80.0677L315.838 84.5156L311.39 77.8438L315.838 75.6198ZM366.994 68.9479L373.666 71.1719V75.6198H364.771L366.994 68.9479ZM682.828 68.9479H687.276V82.2917L682.828 75.6198V68.9479ZM409.255 66.724L413.703 71.1719L404.802 75.6198L402.578 71.1719L409.255 66.724ZM582.739 57.8281L587.187 60.0521V64.5H578.291V60.0521L582.739 57.8281ZM651.692 88.9635H658.364V93.4167L651.692 95.6406V88.9635ZM166.817 80.0677L175.713 82.2917L173.489 86.7396H169.041L166.817 80.0677ZM540.479 75.6198L549.375 80.0677L542.703 82.2917L540.479 75.6198ZM177.937 51.1563L182.385 57.8281H175.713L177.937 51.1563ZM97.8643 135.672V142.349H93.4163V137.896L97.8643 135.672ZM602.76 97.8646L611.656 100.089L604.984 102.313L602.76 97.8646ZM171.265 95.6406L175.713 97.8646L173.489 104.536L171.265 95.6406ZM302.489 82.2917L306.937 84.5156L304.713 91.1927V86.7396L300.265 84.5156L302.489 82.2917ZM251.333 75.6198L260.229 82.2917L251.333 80.0677V75.6198ZM175.713 73.3958L182.385 77.8438L173.489 80.0677L175.713 73.3958ZM209.073 71.1719L215.75 75.6198L211.297 77.8438L206.849 73.3958L209.073 71.1719ZM391.458 68.9479L395.906 71.1719V75.6198L389.234 73.3958L391.458 68.9479ZM471.531 57.8281H475.979L473.755 64.5L469.307 60.0521L471.531 57.8281ZM462.635 55.6042L464.859 64.5L460.411 62.276L462.635 55.6042ZM682.828 53.3802L687.276 55.6042L678.38 60.0521L682.828 53.3802ZM353.646 51.1563L358.093 53.3802L353.646 57.8281L349.198 53.3802L353.646 51.1563ZM318.062 40.0313H322.51L320.286 46.7083L315.838 42.2604L318.062 40.0313ZM631.672 35.5833L636.119 40.0313L631.672 44.4844L629.448 37.8073L631.672 35.5833ZM311.39 2175.26L315.838 2177.49L313.614 2181.94L309.161 2177.49L311.39 2175.26ZM331.406 2166.36L335.854 2170.81H329.182L331.406 2166.36ZM787.364 164.589H791.812L789.588 173.484L787.364 164.589ZM678.38 102.313L682.828 104.536V108.984H678.38V102.313ZM687.276 97.8646L691.724 100.089L689.5 104.536L685.052 100.089L687.276 97.8646ZM204.625 88.9635H209.073V93.4167L202.401 91.1927L204.625 88.9635ZM200.177 80.0677L204.625 82.2917L195.729 84.5156L200.177 80.0677ZM613.88 77.8438H618.328L616.104 86.7396L613.88 77.8438ZM478.203 73.3958H484.875V77.8438H478.203V73.3958ZM618.328 68.9479L625 73.3958L618.328 75.6198V68.9479ZM507.119 71.1719L509.343 75.6198L504.896 80.0677L507.119 71.1719ZM358.093 68.9479V75.6198L353.646 73.3958L358.093 68.9479ZM398.13 66.724L404.802 68.9479L398.13 71.1719V66.724ZM338.078 66.724L342.526 68.9479L335.854 73.3958L338.078 66.724ZM180.161 64.5L184.609 66.724L182.385 71.1719L177.937 66.724L180.161 64.5ZM422.599 57.8281L424.823 66.724L420.375 60.0521L422.599 57.8281ZM215.75 57.8281L217.974 64.5L213.521 66.724L215.75 57.8281ZM522.687 57.8281L531.583 60.0521L527.135 62.276L522.687 57.8281ZM360.323 53.3802L366.994 57.8281L360.323 60.0521V53.3802ZM451.51 51.1563L455.958 53.3802V57.8281H451.51V51.1563ZM424.823 51.1563L433.718 53.3802L427.047 55.6042L424.823 51.1563ZM629.448 46.7083L633.896 48.9323L629.448 55.6042V46.7083ZM260.229 42.2604V48.9323L255.781 46.7083L260.229 42.2604ZM540.479 40.0313L547.151 42.2604L542.703 46.7083L540.479 40.0313ZM500.442 2188.61H504.896L502.666 2195.28L500.442 2188.61ZM264.682 2175.26L269.13 2179.71L262.458 2177.49L264.682 2175.26ZM251.333 2173.04L258.005 2175.26H251.333V2173.04ZM791.812 173.484L796.265 175.708L794.036 180.156L791.812 173.484ZM731.76 111.208L736.208 113.432L733.984 117.88L731.76 111.208ZM673.932 95.6406H678.38V100.089H673.932V95.6406ZM544.927 93.4167L551.599 97.8646H544.927V93.4167ZM258.005 95.6406L262.458 97.8646H255.781L258.005 95.6406ZM727.312 91.1927L733.984 93.4167H727.312V91.1927ZM129.005 80.0677L131.229 84.5156L124.557 82.2917L129.005 80.0677ZM318.062 68.9479L322.51 73.3958L315.838 71.1719L318.062 68.9479ZM531.583 66.724L536.031 68.9479H529.359L531.583 66.724ZM253.557 64.5L255.781 71.1719L251.333 68.9479L253.557 64.5ZM266.906 64.5L273.578 66.724H266.906V64.5ZM231.317 64.5L235.765 66.724H229.093L231.317 64.5ZM536.031 60.0521L542.703 62.276H536.031V60.0521ZM616.104 55.6042L622.776 60.0521H616.104V55.6042ZM398.13 55.6042L402.578 60.0521L395.906 57.8281L398.13 55.6042ZM324.734 57.8281L326.958 62.276L320.286 60.0521L324.734 57.8281ZM531.583 53.3802H536.031L533.807 60.0521L531.583 53.3802ZM464.859 51.1563H469.307V55.6042H464.859V51.1563ZM602.76 46.7083L609.432 48.9323H602.76V46.7083ZM249.109 46.7083L253.557 48.9323H246.885L249.109 46.7083ZM598.307 42.2604L604.984 44.4844H598.307V42.2604ZM418.151 37.8073L424.823 40.0313H418.151V37.8073ZM246.885 37.8073H251.333V42.2604H246.885V37.8073ZM251.333 17.7917L255.781 20.0156H249.109L251.333 17.7917ZM600.531 11.1198L604.984 15.5677L598.307 13.3438L600.531 11.1198ZM322.51 2.22396L326.958 4.44792H320.286L322.51 2.22396ZM509.343 2184.16H513.791L511.567 2188.61L509.343 2184.16ZM571.619 2173.04L576.067 2177.49H571.619V2173.04ZM547.151 2175.26H551.599L549.375 2179.71L547.151 2175.26ZM544.927 2168.59L547.151 2173.04L542.703 2170.81L544.927 2168.59ZM275.802 2168.59H280.25L278.026 2173.04L275.802 2168.59ZM86.7445 137.896L91.1924 140.125L86.7445 142.349V137.896ZM75.6247 117.88H80.0726L77.8486 122.328L75.6247 117.88ZM725.088 100.089L729.536 104.536H725.088V100.089ZM660.588 97.8646L665.036 100.089L660.588 102.313V97.8646ZM251.333 100.089L255.781 102.313L251.333 104.536V100.089ZM564.948 95.6406H569.396L567.172 100.089L564.948 95.6406ZM108.984 93.4167H113.432L111.208 97.8646L108.984 93.4167ZM189.057 88.9635L193.505 93.4167H189.057V88.9635ZM558.276 82.2917L562.724 86.7396H558.276V82.2917ZM527.135 84.5156H531.583L529.359 88.9635L527.135 84.5156ZM309.161 84.5156H313.614L311.39 88.9635L309.161 84.5156ZM322.51 82.2917H326.958L324.734 86.7396L322.51 82.2917ZM691.724 80.0677L696.172 82.2917L691.724 84.5156V80.0677ZM342.526 77.8438H346.974L344.75 82.2917L342.526 77.8438ZM609.432 73.3958L613.88 77.8438H609.432V73.3958ZM360.323 75.6198H364.771L362.547 80.0677L360.323 75.6198ZM538.255 71.1719L540.479 75.6198L536.031 73.3958L538.255 71.1719ZM500.442 68.9479L504.896 73.3958H500.442V68.9479ZM375.89 71.1719H380.338L378.114 75.6198L375.89 71.1719ZM186.833 66.724L191.281 71.1719H186.833V66.724ZM173.489 68.9479L177.937 71.1719L173.489 73.3958V68.9479ZM451.51 66.724L453.734 71.1719L449.286 68.9479L451.51 66.724ZM209.073 64.5L213.521 68.9479H209.073V64.5ZM600.531 62.276L604.984 66.724H600.531V62.276ZM482.651 57.8281L487.099 62.276H482.651V57.8281ZM411.479 57.8281L413.703 62.276L409.255 60.0521L411.479 57.8281ZM404.802 57.8281L409.255 60.0521L404.802 62.276V57.8281ZM240.213 57.8281H244.661L242.437 62.276L240.213 57.8281ZM611.656 55.6042L613.88 60.0521L609.432 57.8281L611.656 55.6042ZM209.073 53.3802L213.521 55.6042L209.073 57.8281V53.3802ZM651.692 51.1563L653.916 55.6042L649.463 53.3802L651.692 51.1563ZM435.942 48.9323H440.39L438.166 53.3802L435.942 48.9323ZM344.75 48.9323H349.198L346.974 53.3802L344.75 48.9323ZM613.88 46.7083L616.104 51.1563L611.656 48.9323L613.88 46.7083ZM596.083 46.7083H600.531L598.307 51.1563L596.083 46.7083ZM360.323 44.4844L364.771 46.7083L360.323 48.9323V44.4844ZM438.166 37.8073L442.614 42.2604H438.166V37.8073ZM269.13 40.0313L271.354 44.4844L266.906 42.2604L269.13 40.0313ZM482.651 37.8073H487.099L484.875 42.2604L482.651 37.8073ZM431.494 35.5833L433.718 40.0313L429.271 37.8073L431.494 35.5833ZM520.463 31.1354L522.687 35.5833L518.239 33.3594L520.463 31.1354ZM295.817 28.9115H300.265L298.041 33.3594L295.817 28.9115ZM607.208 24.4635L611.656 28.9115H607.208V24.4635ZM558.276 24.4635H562.724L560.5 28.9115L558.276 24.4635ZM298.041 24.4635H302.489L300.265 28.9115L298.041 24.4635ZM251.333 24.4635H255.781L253.557 28.9115L251.333 24.4635Z" fill="#FEE0C8"/>
</svg>
