<svg width="2693" height="2166" viewBox="0 0 2693 2166" fill="none" xmlns="http://www.w3.org/2000/svg">
<path d="M962.995 6.23438H975.458L981.692 28.0521L997.276 34.2813L1025.32 31.1667L1040.91 34.2813L1050.25 43.6302H1056.49L1059.6 49.8646H1072.07L1075.19 43.6302H1065.84V28.0521H1075.19L1078.3 31.1667L1081.42 40.5156L1097 37.401V43.6302H1106.35L1109.47 28.0521L1128.17 21.8177L1134.4 37.401L1162.45 43.6302L1193.61 28.0521L1237.24 24.9323L1259.06 34.2813L1283.99 37.401V43.6302L1305.81 34.2813L1324.5 37.401L1340.09 40.5156V37.401L1374.37 34.2813L1386.84 24.9323L1433.58 28.0521L1464.75 43.6302L1467.86 52.9844H1474.1L1470.98 43.6302L1492.8 34.2813L1495.91 21.8177L1517.73 28.0521V43.6302H1527.08V37.401H1542.66L1555.12 34.2813L1558.24 43.6302H1548.9L1552.01 49.8646L1564.47 52.9844L1570.71 43.6302L1583.18 37.401L1592.53 34.2813L1611.22 31.1667L1626.81 34.2813L1642.39 28.0521L1648.62 6.23438L1664.2 9.34896L1679.79 34.2813H1673.55V43.6302L1692.25 46.75L1710.95 52.9844L1723.42 56.099V49.8646L1748.35 40.5156L1760.81 43.6302L1770.16 40.5156L1776.4 31.1667L1782.63 49.8646H1795.09L1798.21 43.6302H1804.44V52.9844H1810.68V43.6302L1823.15 46.75V62.3333L1829.37 65.4479L1835.61 74.7969L1848.08 81.0313V87.2656L1860.54 77.9115H1869.89V71.6823L1863.66 68.5625L1860.54 52.9844L1876.12 59.2135V46.75L1885.47 49.8646L1891.71 56.099H1897.94V49.8646L1910.41 52.9844L1913.52 65.4479L1916.64 56.099H1941.57V62.3333L1947.8 59.2135L1950.92 46.75H1960.27V56.099H1972.73L1978.97 49.8646L1988.32 46.75L1985.2 40.5156H1997.67V56.099H1985.2L1994.55 65.4479L2000.78 68.5625L2007.02 56.099L2016.36 52.9844V62.3333L2031.95 65.4479V74.7969H2041.3V56.099L2053.77 59.2135L2063.11 65.4479L2059.99 74.7969H2050.65L2053.77 84.1458V99.7292H2059.99L2063.11 87.2656L2066.23 96.6146H2081.81L2084.93 84.1458L2081.81 77.9115L2103.63 74.7969L2106.74 87.2656L2116.09 90.3802L2119.21 81.0313H2125.44L2128.56 87.2656H2134.79L2141.03 74.7969H2134.79L2137.91 68.5625L2147.26 62.3333L2150.37 68.5625H2169.07L2172.19 81.0313L2175.31 84.1458L2184.66 90.3802H2190.89L2203.35 93.4948L2206.47 96.6146L2203.35 81.0313L2215.82 84.1458V96.6146L2243.87 93.4948L2250.1 90.3802L2262.57 68.5625L2281.27 56.099L2265.69 49.8646L2271.92 43.6302L2284.39 40.5156V49.8646H2290.61V56.099L2306.2 59.2135L2318.67 71.6823L2328.02 87.2656L2334.25 84.1458V71.6823H2343.6L2340.48 59.2135L2343.6 49.8646H2334.25V40.5156H2352.95V77.9115L2359.18 81.0313V74.7969H2371.65L2368.53 62.3333L2377.88 59.2135L2384.11 46.75L2387.23 56.099H2393.46L2390.34 342.813L2387.23 408.26L2374.76 442.542L2371.65 470.589V654.464L2377.88 691.859L2387.23 716.792L2390.34 776.005L2393.46 866.385L2409.04 910.016L2415.28 972.344L2433.97 1012.86L2443.32 1022.21H2437.09L2433.97 1028.44L2446.44 1031.56L2440.21 1037.79L2452.67 1047.14L2458.91 1062.72L2468.25 1081.42H2477.6L2483.84 1103.24L2493.19 1128.17L2505.66 1134.4H2496.31L2499.42 1146.87L2515 1143.75L2518.12 1159.33L2508.77 1168.68H2515L2527.47 1171.8L2539.94 1168.68L2543.05 1178.03L2549.29 1181.15V1193.61L2555.52 1202.96H2546.17L2530.59 1199.85V1215.43L2543.05 1221.66L2549.29 1224.78L2552.4 1209.2L2561.75 1215.43H2564.87L2567.98 1206.08L2580.45 1196.73L2586.68 1209.2L2580.45 1221.66L2589.8 1224.78L2592.92 1240.36L2574.22 1234.13V1240.36L2564.87 1243.48V1249.71L2549.29 1255.94L2536.82 1259.06L2533.7 1268.41L2530.59 1249.71L2527.47 1259.06H2521.23L2524.35 1268.41L2539.94 1271.53V1277.76H2546.17L2549.29 1287.11L2552.4 1283.99L2564.87 1280.88L2561.75 1290.22H2567.98L2571.1 1274.65L2567.98 1259.06L2571.1 1265.3L2583.57 1271.53L2589.8 1277.76L2577.33 1280.88L2583.57 1296.46L2567.98 1293.34V1302.69L2571.1 1296.46H2577.33V1305.81L2586.68 1308.93H2577.33L2574.22 1324.51L2586.68 1321.39V1327.63H2592.92V1333.86L2580.45 1340.09L2592.92 1336.97L2602.27 1343.21L2605.38 1352.56H2599.15L2608.5 1361.91L2620.96 1358.79L2624.08 1371.26L2602.27 1389.95L2599.15 1402.42H2596.03V1408.65L2608.5 1414.89L2596.03 1418L2605.38 1421.12L2599.15 1427.35L2589.8 1424.23L2592.92 1418H2586.68V1405.54H2580.45L2583.57 1418H2577.33V1424.23L2564.87 1421.12L2567.98 1424.23L2571.1 1436.7L2561.75 1439.82L2555.52 1452.28V1439.82L2552.4 1427.35L2524.35 1430.47L2527.47 1439.82L2533.7 1449.17L2527.47 1455.4V1461.64L2533.7 1464.75L2536.82 1449.17H2546.17L2555.52 1467.86L2549.29 1480.33L2539.94 1483.45V1489.68L2527.47 1492.8L2521.23 1505.27V1511.49L2511.89 1514.61L2505.66 1523.96L2493.19 1530.2V1539.55L2496.31 1545.78H2505.66L2508.77 1561.36H2502.54L2499.42 1555.13L2486.95 1552.01L2483.84 1561.36L2471.37 1558.24L2468.25 1567.59L2455.79 1576.94L2449.56 1570.71L2437.09 1576.94L2424.62 1570.71L2412.16 1564.48L2409.04 1573.83H2399.69L2402.81 1583.18H2393.46L2377.88 1598.76H2368.53L2371.65 1614.34V1623.69L2380.99 1633.04L2390.34 1629.92L2384.11 1642.39L2368.53 1639.27H2365.41L2362.3 1651.74L2356.06 1645.51L2352.95 1657.97H2340.48L2365.41 1664.2L2362.3 1670.44L2346.71 1667.32L2331.13 1673.55L2321.78 1670.44L2296.85 1673.55V1679.79L2303.08 1682.9V1689.14L2315.55 1692.26L2309.32 1695.37V1701.6H2299.97L2303.08 1714.07L2293.73 1717.19H2284.39L2278.15 1739L2268.8 1745.23L2250.1 1739L2253.22 1748.35L2243.87 1751.47H2231.41V1745.23L2218.94 1754.58H2209.59L2212.7 1767.05L2218.94 1763.93V1791.98H2215.82V1776.4L2206.47 1785.75L2197.12 1782.63L2187.77 1770.17L2184.66 1776.4L2187.77 1785.75L2184.66 1795.1L2175.31 1791.98V1785.75H2169.07L2165.96 1795.1H2156.61L2147.26 1791.98V1798.21L2137.91 1801.33L2134.79 1795.1V1807.56L2125.44 1810.68L2109.86 1813.8L2103.63 1826.26V1820.03H2097.4V1826.26H2088.05L2084.93 1823.15V1829.38H2075.58L2084.93 1838.73V1844.96L2069.35 1848.08L2066.23 1860.54H2059.99L2053.77 1873.01L2050.65 1860.54H2031.95L2016.36 1866.78L2010.14 1885.47H2003.9V1876.13L1991.43 1873.01L1988.32 1882.36L2000.78 1885.47L1994.55 1897.94L2000.78 1904.17L1991.43 1907.29L1985.2 1919.76L1978.97 1913.53V1904.17L1963.39 1910.41L1960.27 1919.76L1957.15 1913.53L1950.92 1922.88L1957.15 1925.99L1954.04 1941.57L1944.69 1938.45V1932.22L1929.1 1947.81L1925.99 1957.16L1907.29 1960.27L1904.17 1954.04L1894.82 1957.16L1885.47 1969.62H1879.24V1975.85L1891.71 1969.62L1897.94 1975.85L1885.47 1982.09L1876.12 1985.2L1866.78 1991.44L1876.12 1997.67L1860.54 2007.02L1848.08 2010.14L1841.84 2013.25L1838.72 2007.02L1823.15 2010.14L1810.68 2007.02H1804.44V2013.25H1810.68V2022.6L1782.63 2013.25L1770.16 2022.6L1782.63 2025.72L1773.28 2038.18V2047.53L1754.58 2041.3L1748.35 2035.07H1742.11L1751.46 2047.53H1732.77L1729.65 2038.18L1710.95 2041.3V2047.53L1720.3 2053.77L1739 2050.65L1745.23 2056.88L1748.35 2066.23H1742.11L1739 2075.58L1729.65 2072.46H1720.3L1717.18 2063.11L1692.25 2053.77L1701.6 2038.18V2031.95H1695.37L1698.48 2038.18H1692.25L1689.14 2044.42L1670.44 2047.53L1664.2 2025.72L1661.09 2031.95H1654.85L1651.74 2025.72L1642.39 2047.53L1654.85 2053.77L1651.74 2063.11L1664.2 2069.35L1651.74 2081.81L1639.27 2084.93V2094.28L1645.5 2103.63L1642.39 2112.98L1629.92 2109.86L1614.34 2106.75L1611.22 2100.51H1583.18L1573.82 2103.63L1570.71 2091.16L1558.24 2084.93L1555.12 2091.16H1548.9L1552.01 2109.86L1539.54 2116.09L1542.66 2088.05L1539.54 2084.93L1533.31 2088.05L1520.84 2081.81L1523.96 2066.23L1536.43 2060L1542.66 2053.77L1548.9 2063.11L1555.12 2066.23L1552.01 2056.88L1561.36 2060L1564.47 2063.11L1567.59 2050.65L1545.78 2053.77V2038.18L1542.66 2035.07L1539.54 2047.53V2041.3H1517.73L1511.49 2044.42V2060L1517.73 2063.11L1511.49 2075.58L1505.26 2081.81L1502.15 2078.7L1495.91 2084.93L1483.45 2081.81L1480.33 2075.58L1470.98 2084.93L1455.4 2088.05L1461.63 2094.28L1480.33 2091.16L1474.1 2100.51L1464.75 2106.75L1458.52 2125.44H1439.82V2116.09L1446.05 2112.98L1433.58 2109.86L1439.82 2094.28L1446.05 2091.16L1439.82 2088.05L1436.7 2075.58L1430.47 2081.81H1421.12L1418 2088.05L1414.89 2081.81L1405.54 2094.28L1411.77 2106.75L1396.19 2097.4L1377.48 2091.16L1380.6 2103.63L1365.02 2106.75L1349.44 2103.63H1340.09L1333.85 2112.98V2106.75H1315.16L1308.92 2100.51V2094.28L1280.87 2103.63L1287.11 2094.28L1277.76 2081.81L1268.41 2084.93L1259.06 2081.81L1252.83 2075.58L1249.71 2088.05L1243.48 2094.28L1255.94 2097.4L1259.06 2106.75L1249.71 2109.86L1243.48 2106.75V2119.21L1252.83 2125.44L1246.59 2131.68V2125.44H1234.13V2109.86L1224.78 2106.75L1218.55 2100.51L1212.31 2091.16L1231.01 2094.28L1237.24 2084.93H1221.66L1212.31 2081.81V2072.46L1202.96 2075.58L1199.85 2088.05L1178.03 2075.58L1162.45 2084.93L1156.22 2091.16L1149.98 2081.81L1143.75 2094.28L1134.4 2100.51L1131.29 2084.93L1118.82 2094.28L1109.47 2097.4L1090.77 2100.51L1087.65 2119.21L1084.54 2106.75L1087.65 2097.4L1065.84 2094.28L1068.95 2088.05H1053.37V2081.81L1037.79 2084.93L1031.56 2072.46H1015.97L1012.86 2088.05L1000.39 2084.93V2075.58L984.807 2078.7L972.343 2072.46L981.692 2069.35V2063.11H975.458L969.229 2072.46H953.646V2066.23H947.411L950.526 2050.65V2047.53L938.062 2044.42L947.411 2038.18L938.062 2031.95L934.948 2041.3L931.828 2031.95L928.713 2022.6L922.479 2025.72L919.364 2019.48H913.13L910.015 2013.25L888.198 2019.48L881.963 2013.25H888.198L885.083 2003.9H878.849L875.734 2010.14H857.031L853.916 2007.02L847.682 2013.25L825.87 2003.9L816.521 1994.55L819.635 1991.44L816.521 1982.09H800.937V1975.85L794.703 1972.73L804.052 1960.27H797.823L794.703 1950.92L791.588 1944.69L788.468 1957.16H769.771L766.656 1963.39V1947.81L757.307 1944.69V1938.45H751.073L738.609 1922.88L732.375 1925.99L729.255 1910.41L713.677 1904.17L710.557 1919.76L698.093 1910.41V1904.17L691.859 1901.06L694.974 1891.71L691.859 1882.36H701.208L694.974 1876.13L688.745 1879.24V1885.47H682.51L676.276 1860.54L663.812 1863.66V1857.43L645.114 1854.31L651.343 1860.54L638.88 1873.01L632.646 1869.89L623.297 1851.19V1844.96L613.948 1848.08L601.484 1841.84V1835.61L592.13 1832.49V1820.03L579.666 1816.91L576.552 1807.56L567.198 1810.68L564.083 1804.45L548.5 1807.56L542.271 1795.1L529.802 1791.98L523.567 1779.52H529.802L523.567 1773.28L517.338 1785.75L504.869 1791.98V1773.28L501.755 1776.4L489.286 1773.28V1754.58L470.588 1748.35L458.125 1745.23V1751.47H442.541L436.307 1739L430.073 1735.89L426.958 1742.11L420.724 1739L417.609 1745.23V1735.89H411.375L408.26 1723.42L402.026 1726.54L395.791 1717.19L386.442 1710.95H392.677L389.562 1704.72H380.213L373.979 1692.26L386.442 1689.14V1682.9H395.791V1673.55H370.859L361.51 1676.67V1670.44H345.932V1664.2L336.578 1670.44L324.114 1667.32L317.88 1661.09L339.698 1657.97L336.578 1648.62H327.229V1636.16L311.651 1639.27L308.531 1645.51L305.416 1636.16L317.88 1629.92L321 1620.57L314.765 1617.46L321 1601.88L302.297 1589.41L296.067 1583.18H286.718L289.833 1573.83L280.484 1570.71L286.718 1567.59L274.25 1564.48L264.901 1570.71H261.786V1576.94H252.437L246.203 1586.29L239.968 1573.83L233.734 1576.94L224.385 1567.59L218.156 1552.01V1558.24L208.807 1555.13V1548.9L190.104 1555.13L183.875 1548.9L193.224 1545.78L199.453 1533.31L190.104 1523.96H183.875L171.406 1511.49V1495.92L158.942 1489.68L152.708 1483.45L140.239 1458.52L146.474 1449.17H158.942L165.172 1433.58L152.708 1430.47H140.239L137.125 1439.82L140.239 1449.17H127.776V1442.93L112.192 1436.7L109.078 1430.47L115.312 1424.23V1414.89L102.843 1421.12L93.4945 1430.47L84.1455 1427.35V1411.77L93.4945 1402.42L81.0309 1389.95L77.9111 1380.6L65.4476 1383.72L62.3278 1371.26L52.9788 1374.37L49.8643 1358.79L71.6768 1361.91L74.7966 1352.56L68.5622 1349.44L71.6768 1340.09L84.1455 1336.97V1343.21L90.3799 1336.97L87.2601 1330.74L99.7288 1324.51L96.6091 1308.93V1305.81L102.843 1302.69V1293.34L90.3799 1296.46L87.2601 1287.11L93.4945 1283.99L81.0309 1277.76L84.1455 1271.53L93.4945 1265.3L105.958 1268.41L99.7288 1271.53L105.958 1283.99H118.427L121.541 1293.34L127.776 1283.99V1277.76H134.01V1262.18L115.312 1252.83H109.078V1231.02L105.958 1240.36L96.6091 1237.24L99.7288 1231.02H90.3799L87.2601 1240.36L84.1455 1218.55H74.7966L77.9111 1209.2L87.2601 1199.85L99.7288 1202.96L109.078 1215.43L105.958 1218.55L112.192 1215.43L115.312 1206.08L130.89 1221.66L146.474 1218.55V1224.78H152.708L143.359 1212.31L137.125 1206.08L152.708 1202.96L137.125 1199.85L121.541 1206.08V1196.73H127.776L124.661 1181.15V1168.68L127.776 1162.45L146.474 1171.8V1131.29L140.239 1128.17L152.708 1125.05L158.942 1109.47L168.291 1100.12L186.989 1072.07L205.687 1037.79L218.156 1006.63L227.505 984.813L236.854 934.948L249.317 903.781L255.552 797.823L268.015 766.656L271.135 747.958V364.63L264.901 339.698L255.552 317.885L252.437 180.755V96.6146L258.666 74.7969H264.901V84.1458L271.135 81.0313V49.8646L277.369 40.5156H292.948L289.833 49.8646L283.599 52.9844V71.6823H289.833L292.948 84.1458H302.297L308.531 68.5625L324.114 56.099L339.698 46.75L345.932 40.5156L355.281 43.6302L352.161 52.9844H342.812L345.932 65.4479H352.161L355.281 59.2135V68.5625L364.63 71.6823L377.093 93.4948L402.026 96.6146L408.26 90.3802V84.1458L420.724 81.0313L417.609 96.6146L423.843 90.3802L442.541 93.4948L445.656 84.1458H451.89L455.005 68.5625H473.708V56.099L467.474 52.9844V34.2813H473.708L486.172 49.8646L492.406 52.9844L495.521 40.5156L498.635 59.2135H486.172V68.5625L501.755 65.4479L511.104 52.9844V46.75L526.687 49.8646L532.916 65.4479L529.802 68.5625L507.989 71.6823L498.635 74.7969V68.5625H492.406L489.286 77.9115L486.172 87.2656L498.635 90.3802V81.0313L507.989 84.1458V90.3802L523.567 81.0313L520.453 74.7969L542.271 77.9115L539.151 93.4948L542.271 96.6146L557.849 90.3802L564.083 87.2656L570.317 96.6146L573.432 87.2656V74.7969H564.083L567.198 62.3333L582.781 56.099L585.901 65.4479L582.781 74.7969H592.13L595.25 65.4479L607.713 52.9844H617.062L626.411 62.3333L638.88 59.2135L629.531 56.099L626.411 40.5156L638.88 37.401L635.765 52.9844L651.343 49.8646V56.099H663.812V46.75H673.161L679.396 59.2135L685.625 62.3333V56.099H707.442L710.557 65.4479L713.677 56.099L716.791 49.8646H729.255V56.099L738.609 52.9844L741.724 46.75H747.958L754.187 56.099L763.541 46.75L772.89 43.6302L776.005 31.1667L782.239 43.6302L788.468 59.2135H800.937L804.052 46.75L813.401 43.6302L819.635 52.9844V43.6302H825.87L832.104 52.9844L844.567 46.75L847.682 37.401H853.916V43.6302L878.849 40.5156L903.781 49.8646L913.13 52.9844L925.593 49.8646L950.526 40.5156L953.646 34.2813L947.411 31.1667L959.88 9.34896L962.995 6.23438ZM969.229 34.2813L966.109 40.5156L981.692 43.6302L984.807 34.2813H969.229ZM1234.13 34.2813V40.5156H1240.36V34.2813H1234.13ZM1383.72 34.2813L1389.95 40.5156V34.2813H1383.72ZM1639.27 34.2813L1642.39 43.6302L1657.97 40.5156L1654.85 34.2813H1639.27ZM1149.98 46.75V52.9844L1159.33 49.8646L1149.98 46.75ZM1536.43 46.75L1533.31 52.9844H1539.54L1536.43 46.75ZM972.343 49.8646L969.229 56.099L978.578 59.2135L987.927 49.8646H972.343ZM1196.73 49.8646L1193.61 56.099H1202.96V49.8646H1196.73ZM1424.23 49.8646L1421.12 56.099H1430.47V49.8646H1424.23ZM1636.16 49.8646L1648.62 59.2135L1654.85 52.9844L1651.74 49.8646H1636.16ZM1739 49.8646L1732.77 65.4479L1739 68.5625L1751.46 65.4479L1760.81 74.7969L1770.16 65.4479L1760.81 62.3333V52.9844L1739 49.8646ZM766.656 52.9844L760.422 68.5625H754.187L757.307 77.9115L769.771 87.2656H776.005V81.0313H788.468V74.7969H782.239L779.12 65.4479H772.89L776.005 52.9844H766.656ZM878.849 49.8646L863.265 52.9844V62.3333H857.031V71.6823L866.385 74.7969L875.734 65.4479L891.312 68.5625L888.198 49.8646H878.849ZM1000.39 56.099V65.4479L1009.74 62.3333L1006.62 56.099H1000.39ZM1140.64 56.099L1134.4 65.4479L1140.64 68.5625L1146.86 65.4479V56.099H1140.64ZM1477.21 56.099L1483.45 68.5625H1489.68L1483.45 56.099H1477.21ZM1112.58 59.2135L1109.47 68.5625H1118.82L1115.7 59.2135H1112.58ZM1617.46 59.2135L1626.81 68.5625L1633.04 65.4479L1617.46 59.2135ZM688.745 62.3333L691.859 68.5625L704.328 65.4479V62.3333H688.745ZM735.489 62.3333L732.375 71.6823H744.838L741.724 62.3333H735.489ZM994.161 62.3333L997.276 77.9115L1003.51 74.7969L997.276 62.3333H994.161ZM1508.38 62.3333V68.5625H1514.61V62.3333H1508.38ZM1882.36 62.3333V71.6823H1891.71L1888.59 62.3333H1882.36ZM1925.99 62.3333L1929.1 68.5625L1932.22 62.3333H1925.99ZM330.349 65.4479V71.6823L321 68.5625L314.765 77.9115L327.229 87.2656L336.578 81.0313L339.698 65.4479H330.349ZM2284.39 65.4479L2290.61 81.0313H2296.85V87.2656H2303.08L2309.32 74.7969L2293.73 65.4479H2284.39ZM638.88 68.5625L632.646 84.1458L645.114 71.6823L638.88 68.5625ZM1623.69 68.5625L1620.57 74.7969L1629.92 77.9115L1626.81 68.5625H1623.69ZM345.932 71.6823L339.698 74.7969L342.812 84.1458L358.396 90.3802L361.51 71.6823H345.932ZM1982.08 71.6823L1988.32 84.1458L1991.43 74.7969L1982.08 71.6823ZM2265.69 71.6823L2262.57 84.1458L2275.04 87.2656L2287.5 81.0313L2281.27 71.6823H2265.69ZM585.901 81.0313L579.666 96.6146L604.599 93.4948L607.713 81.0313H585.901ZM2019.48 81.0313V90.3802L2038.18 96.6146H2044.42V90.3802H2038.18L2035.07 81.0313H2019.48ZM308.531 90.3802L289.833 105.964L292.948 118.427L305.416 115.313L311.651 102.844L314.765 90.3802H308.531ZM2312.43 90.3802L2309.32 96.6146L2312.43 102.844L2321.78 99.7292L2318.67 90.3802H2312.43ZM476.823 96.6146L473.708 102.844H479.937L476.823 96.6146ZM2318.67 102.844L2315.55 109.078L2318.67 118.427H2340.48L2334.25 102.844H2318.67ZM283.599 112.193V118.427L289.833 115.313L283.599 112.193ZM402.026 115.313V130.896L426.958 134.01V124.661L414.494 121.547L411.375 115.313H402.026ZM2212.7 115.313L2206.47 121.547L2197.12 130.896L2209.59 134.01L2225.17 127.776L2218.94 115.313H2212.7ZM2490.07 1143.75L2493.19 1165.57L2502.54 1162.45L2499.42 1146.87L2490.07 1143.75ZM2474.49 1153.1L2480.72 1159.33V1153.1H2474.49ZM2518.12 1202.96L2521.23 1212.31V1202.96H2518.12ZM84.1455 1209.2L87.2601 1221.66L93.4945 1218.55L90.3799 1209.2H84.1455ZM2521.23 1218.55V1224.78L2527.47 1221.66L2521.23 1218.55ZM2564.87 1224.78V1231.02L2571.1 1227.9L2564.87 1224.78ZM2521.23 1231.02L2511.89 1246.59H2521.23L2524.35 1231.02H2521.23ZM115.312 1234.13L118.427 1246.59H127.776L130.89 1234.13H115.312ZM149.593 1234.13L152.708 1246.59H158.942L155.823 1234.13H149.593ZM2543.05 1234.13L2546.17 1246.59L2558.64 1243.48L2555.52 1234.13H2543.05ZM2380.99 1237.24L2387.23 1243.48V1237.24H2380.99ZM143.359 1240.36L140.239 1252.83L146.474 1255.94L152.708 1249.71H146.474L149.593 1240.36H143.359ZM149.593 1255.94L140.239 1262.18L143.359 1280.88L152.708 1283.99L155.823 1259.06L149.593 1255.94ZM2521.23 1274.65L2511.89 1283.99V1293.34L2527.47 1283.99L2524.35 1274.65H2521.23ZM152.708 1283.99L162.057 1293.34V1283.99H152.708ZM165.172 1287.11L168.291 1293.34L171.406 1287.11H165.172ZM134.01 1290.22L127.776 1299.58H137.125L134.01 1290.22ZM2443.32 1290.22L2449.56 1296.46V1290.22H2443.32ZM2536.82 1293.34L2533.7 1299.58L2543.05 1302.69L2549.29 1296.46L2536.82 1293.34ZM152.708 1296.46L155.823 1305.81V1296.46H152.708ZM2515 1296.46L2518.12 1305.81V1296.46H2515ZM180.755 1299.58V1308.93L186.989 1305.81L180.755 1299.58ZM2486.95 1299.58V1308.93L2493.19 1305.81L2486.95 1299.58ZM127.776 1305.81L124.661 1315.16H130.89L127.776 1305.81ZM171.406 1305.81L168.291 1312.04H174.521L171.406 1305.81ZM2499.42 1305.81V1312.04L2505.66 1308.93L2499.42 1305.81ZM2543.05 1305.81V1315.16L2549.29 1312.04L2543.05 1305.81ZM2571.1 1305.81L2567.98 1312.04H2574.22L2571.1 1305.81ZM152.708 1315.16V1324.51H158.942L155.823 1315.16H152.708ZM2518.12 1315.16L2511.89 1324.51H2521.23L2518.12 1315.16ZM165.172 1324.51L168.291 1330.74L171.406 1324.51H165.172ZM2533.7 1324.51L2536.82 1330.74L2539.94 1324.51H2533.7ZM105.958 1333.86V1340.09L112.192 1336.97L105.958 1333.86ZM168.291 1333.86L174.521 1340.09V1333.86H168.291ZM96.6091 1343.21V1352.56L105.958 1355.67V1349.44H99.7288L96.6091 1343.21ZM2571.1 1343.21L2567.98 1352.56H2577.33V1343.21H2571.1ZM2555.52 1349.44V1355.67H2561.75V1349.44H2555.52ZM134.01 1361.91L127.776 1371.26H137.125L134.01 1361.91ZM2533.7 1361.91V1374.37H2543.05L2539.94 1361.91H2533.7ZM87.2601 1368.14V1377.49L90.3799 1383.72L109.078 1389.95L102.843 1368.14H87.2601ZM2571.1 1368.14L2567.98 1383.72L2583.57 1377.49V1368.14L2577.33 1374.37L2571.1 1368.14ZM2586.68 1368.14L2592.92 1377.49V1368.14H2586.68ZM2586.68 1383.72L2589.8 1389.95L2596.03 1386.84L2586.68 1383.72ZM130.89 1386.84L127.776 1402.42L140.239 1389.95L130.89 1386.84ZM146.474 1386.84L137.125 1402.42L146.474 1399.3L149.593 1386.84H146.474ZM2480.72 1386.84L2486.95 1393.07V1386.84H2480.72ZM2539.94 1386.84L2546.17 1402.42L2555.52 1399.3H2549.29L2546.17 1386.84H2539.94ZM2555.52 1386.84V1396.19L2564.87 1402.42L2561.75 1386.84H2555.52ZM165.172 1389.95V1402.42L158.942 1405.54H168.291L171.406 1411.77V1402.42L168.291 1396.19H174.521V1389.95H165.172ZM2518.12 1389.95L2521.23 1399.3L2527.47 1393.07L2518.12 1389.95ZM118.427 1393.07V1399.3L124.661 1396.19L118.427 1393.07ZM2577.33 1393.07L2580.45 1402.42H2586.68L2583.57 1393.07H2577.33ZM2524.35 1399.3L2518.12 1408.65L2524.35 1411.77L2527.47 1399.3H2524.35ZM183.875 1402.42L186.989 1411.77L190.104 1402.42H183.875ZM2505.66 1405.54L2502.54 1411.77H2508.77L2505.66 1405.54ZM93.4945 1411.77L87.2601 1418H96.6091L93.4945 1411.77ZM121.541 1427.35L124.661 1436.7L127.776 1427.35H121.541ZM2502.54 1430.47V1436.7L2508.77 1433.58L2502.54 1430.47ZM2508.77 1439.82L2511.89 1446.05L2515 1439.82H2508.77ZM2511.89 1446.05L2505.66 1449.17V1467.86H2515L2521.23 1461.64L2518.12 1446.05H2511.89ZM171.406 1446.05L158.942 1449.17L152.708 1464.75H165.172V1455.4L180.755 1467.86L186.989 1474.1L190.104 1467.86L183.875 1449.17L171.406 1446.05ZM199.453 1455.4L202.573 1461.64L205.687 1455.4H199.453ZM2486.95 1455.4V1461.64L2499.42 1458.52L2486.95 1455.4ZM168.291 1464.75L165.172 1477.21H171.406L168.291 1464.75ZM158.942 1467.86L162.057 1474.1L165.172 1467.86H158.942ZM183.875 1477.21L180.755 1489.68L193.224 1495.92L196.338 1483.45L193.224 1477.21H183.875ZM2499.42 1477.21L2490.07 1483.45L2499.42 1486.56L2502.54 1495.92L2505.66 1486.56L2511.89 1489.68L2508.77 1477.21H2499.42ZM205.687 1495.92L202.573 1502.15L211.922 1499.03L205.687 1495.92ZM2480.72 1495.92V1502.15H2486.95V1495.92H2480.72ZM180.755 1502.15L183.875 1511.49V1502.15H180.755ZM2505.66 1502.15L2508.77 1508.38L2511.89 1502.15H2505.66ZM208.807 1514.61L202.573 1517.73L205.687 1527.08H224.385L218.156 1517.73L211.922 1520.85L208.807 1514.61ZM2480.72 1517.73L2468.25 1523.96L2480.72 1527.08L2490.07 1517.73H2480.72ZM227.505 1530.2L221.271 1539.55L230.619 1542.66V1536.43L239.968 1533.31L227.505 1530.2ZM246.203 1530.2L243.088 1545.78H249.317V1530.2H246.203ZM2458.91 1530.2L2452.67 1536.43L2465.14 1542.66L2474.49 1536.43L2458.91 1530.2ZM2443.32 1533.31L2446.44 1545.78V1533.31H2443.32ZM255.552 1536.43V1548.9L261.786 1545.78L255.552 1536.43ZM2418.39 1542.66L2424.62 1548.9V1542.66H2418.39ZM2390.34 1545.78L2396.58 1552.01L2399.69 1545.78H2390.34ZM2424.62 1548.9L2421.51 1561.36L2430.86 1558.24L2424.62 1548.9ZM2455.79 1552.01L2458.91 1564.48L2462.03 1552.01H2455.79ZM336.578 1555.13L339.698 1561.36L342.812 1555.13H336.578ZM2374.76 1555.13V1573.83L2390.34 1570.71L2384.11 1567.59V1558.24L2374.76 1555.13ZM314.765 1555.13L299.182 1570.71L302.297 1580.06H311.651L317.88 1561.36L314.765 1555.13ZM330.349 1561.36L333.463 1567.59L336.578 1561.36H330.349ZM2299.97 1561.36L2296.85 1573.83L2309.32 1570.71V1564.48L2299.97 1561.36ZM2356.06 1561.36L2362.3 1567.59V1561.36H2356.06ZM292.948 1564.48L289.833 1570.71H296.067L292.948 1564.48ZM361.51 1564.48L367.744 1570.71V1564.48H361.51ZM2427.74 1564.48V1570.71L2433.97 1567.59L2427.74 1564.48ZM2206.47 1570.71L2203.35 1576.94H2209.59L2206.47 1570.71ZM2380.99 1573.83L2377.88 1580.06L2393.46 1576.94L2380.99 1573.83ZM333.463 1576.94V1583.18L352.161 1589.41V1583.18L333.463 1576.94ZM2343.6 1576.94L2340.48 1586.29L2356.06 1583.18L2359.18 1576.94H2343.6ZM345.932 1589.41V1595.64L355.281 1592.53L345.932 1589.41ZM2356.06 1589.41V1595.64L2365.41 1592.53L2356.06 1589.41ZM333.463 1589.41L321 1595.64L330.349 1601.88L342.812 1604.99L336.578 1589.41H333.463ZM355.281 1595.64L358.396 1601.88L361.51 1595.64H355.281ZM2349.83 1595.64V1604.99L2362.3 1598.76L2349.83 1595.64ZM2334.25 1598.76L2337.36 1608.11L2343.6 1601.88L2334.25 1598.76ZM2340.48 1608.11L2331.13 1620.57V1626.81L2343.6 1623.69L2352.95 1614.34L2340.48 1608.11ZM339.698 1611.22L336.578 1617.46L349.047 1623.69L358.396 1626.81L361.51 1617.46L349.047 1611.22H339.698ZM364.63 1617.46L358.396 1629.92L361.51 1639.27L367.744 1629.92L364.63 1617.46ZM2324.9 1617.46L2321.78 1623.69L2328.02 1629.92L2324.9 1617.46ZM330.349 1629.92L336.578 1636.16V1629.92H330.349ZM349.047 1629.92L355.281 1639.27V1629.92H349.047ZM2231.41 1629.92L2234.52 1639.27V1629.92H2231.41ZM2334.25 1629.92V1642.39L2343.6 1633.04L2334.25 1629.92ZM436.307 1633.04L433.192 1639.27H439.427L436.307 1633.04ZM367.744 1645.51L361.51 1661.09H370.859V1645.51H367.744ZM2324.9 1642.39L2318.67 1645.51V1661.09H2328.02L2331.13 1645.51L2324.9 1642.39ZM2281.27 1679.79L2278.15 1686.02H2284.39L2281.27 1679.79ZM395.791 1689.14L402.026 1704.72L405.146 1698.48L395.791 1689.14ZM2290.61 1689.14V1698.48L2284.39 1701.6H2293.73L2290.61 1689.14ZM2246.98 1698.48L2253.22 1704.72V1698.48H2246.98ZM2271.92 1723.42L2265.69 1735.89L2275.04 1732.77L2271.92 1723.42ZM1991.43 1726.54L1994.55 1732.77L1997.67 1726.54H1991.43ZM417.609 1729.65L423.843 1735.89V1729.65H417.609ZM663.812 1748.35V1754.58L670.047 1751.47L663.812 1748.35ZM2022.6 1748.35L2028.83 1754.58V1748.35H2022.6ZM564.083 1748.35L557.849 1751.47V1757.7L573.432 1754.58L564.083 1748.35ZM2122.33 1748.35L2116.09 1751.47V1757.7H2131.68V1748.35H2122.33ZM2200.24 1751.47L2197.12 1763.93L2203.35 1773.28L2206.47 1754.58L2200.24 1751.47ZM626.411 1754.58L620.182 1763.93V1782.63L635.765 1779.52V1773.28L641.995 1767.05H635.765V1757.7L626.411 1754.58ZM2063.11 1754.58L2056.88 1767.05L2050.65 1770.17L2056.88 1785.75L2072.46 1782.63L2069.35 1757.7L2063.11 1754.58ZM2084.93 1754.58L2078.7 1770.17L2091.16 1773.28V1754.58H2084.93ZM601.484 1754.58L592.13 1760.82L598.364 1767.05H601.484V1773.28L613.948 1770.17V1763.93H607.713L604.599 1754.58H601.484ZM2165.96 1767.05L2162.84 1779.52H2169.07L2172.19 1770.17L2165.96 1767.05ZM576.552 1770.17L582.781 1776.4V1770.17H576.552ZM2109.86 1770.17L2103.63 1773.28L2106.74 1779.52L2116.09 1770.17H2109.86ZM732.375 1773.28L735.489 1779.52L738.609 1773.28H732.375ZM567.198 1779.52V1785.75H573.432V1779.52H567.198ZM2106.74 1782.63L2109.86 1795.1L2112.98 1788.86L2106.74 1782.63ZM589.015 1782.63L582.781 1785.75L585.901 1791.98L592.13 1788.86L589.015 1782.63ZM2047.53 1785.75L2041.3 1791.98H2050.65L2047.53 1785.75ZM551.619 1791.98L554.734 1801.33L560.968 1798.21L564.083 1791.98H551.619ZM585.901 1791.98L589.015 1801.33V1791.98H585.901ZM2097.4 1791.98L2103.63 1801.33V1791.98H2097.4ZM654.463 1795.1L651.343 1804.45H660.692L657.578 1795.1H654.463ZM2081.81 1795.1V1804.45H2088.05L2084.93 1795.1H2081.81ZM638.88 1798.21V1804.45H645.114V1798.21H638.88ZM2031.95 1798.21L2035.07 1807.56V1798.21H2031.95ZM2047.53 1798.21V1804.45H2053.77V1798.21H2047.53ZM691.859 1801.33L698.093 1807.56L701.208 1801.33H691.859ZM1975.85 1801.33L1978.97 1807.56L1982.08 1801.33H1975.85ZM2091.16 1801.33V1807.56H2097.4V1801.33H2091.16ZM660.692 1807.56L663.812 1813.8L666.927 1807.56H660.692ZM2025.71 1807.56V1816.91L2031.95 1807.56H2025.71ZM682.51 1813.8V1829.38L691.859 1826.26L688.745 1813.8H682.51ZM707.442 1813.8L710.557 1823.15L716.791 1820.03L713.677 1813.8H707.442ZM1978.97 1813.8V1823.15L1985.2 1816.91L1978.97 1813.8ZM2003.9 1813.8V1829.38L2010.14 1820.03L2003.9 1813.8ZM2031.95 1813.8L2028.83 1820.03H2035.07L2031.95 1813.8ZM601.484 1816.91V1835.61L610.833 1838.73L617.062 1826.26L613.948 1820.03L604.599 1823.15L601.484 1816.91ZM626.411 1823.15L620.182 1835.61L638.88 1838.73L641.995 1826.26L626.411 1823.15ZM2031.95 1823.15V1835.61L2038.18 1829.38L2031.95 1823.15ZM2059.99 1823.15L2056.88 1832.49H2044.42V1838.73L2072.46 1835.61L2059.99 1823.15ZM657.578 1823.15L651.343 1826.26L654.463 1835.61L660.692 1832.49L657.578 1823.15ZM726.14 1829.38V1835.61L735.489 1832.49L726.14 1829.38ZM1960.27 1829.38L1957.15 1835.61L1966.5 1832.49L1960.27 1829.38ZM2016.36 1832.49L2022.6 1838.73V1832.49H2016.36ZM701.208 1838.73L707.442 1857.43L713.677 1860.54V1854.31L726.14 1848.08L710.557 1841.84L701.208 1838.73ZM1982.08 1838.73L1978.97 1848.08H1972.73V1879.24L1966.5 1882.36H1975.85L1985.2 1854.31V1844.96L1994.55 1841.84L1982.08 1838.73ZM2056.88 1841.84V1848.08H2066.23L2063.11 1841.84H2056.88ZM2000.78 1844.96L2003.9 1851.19L2007.02 1844.96H2000.78ZM729.255 1851.19L726.14 1869.89L732.375 1863.66L729.255 1851.19ZM1960.27 1851.19L1957.15 1857.43L1966.5 1869.89L1963.39 1851.19H1960.27ZM1991.43 1851.19L1994.55 1860.54V1851.19H1991.43ZM2041.3 1851.19V1857.43L2050.65 1854.31L2041.3 1851.19ZM682.51 1854.31L685.625 1863.66L688.745 1854.31H682.51ZM2000.78 1854.31L2003.9 1863.66H2010.14V1854.31H2000.78ZM713.677 1860.54L716.791 1869.89L719.906 1860.54H713.677ZM713.677 1873.01L716.791 1882.36L723.026 1879.24L713.677 1873.01ZM704.328 1885.47V1897.94L713.677 1894.82L710.557 1885.47H704.328ZM1982.08 1885.47L1978.97 1897.94H1985.2L1988.32 1888.59L1982.08 1885.47ZM885.083 1922.88L872.614 1935.34L885.083 1938.45L888.198 1922.88H885.083ZM1804.44 1922.88V1938.45L1820.03 1935.34L1807.56 1929.1L1804.44 1922.88ZM785.354 1925.99L782.239 1932.22H788.468L785.354 1925.99ZM810.286 1925.99L816.521 1932.22V1925.99H810.286ZM766.656 1935.34L760.422 1941.57H766.656L769.771 1947.81L776.005 1944.69L779.12 1950.92L782.239 1941.57L766.656 1935.34ZM1907.29 1941.57L1916.64 1950.92V1941.57H1907.29ZM1919.75 1941.57L1925.99 1947.81V1941.57H1919.75ZM844.567 1947.81L850.802 1954.04V1947.81H844.567ZM928.713 1944.69L922.479 1950.92H931.828L928.713 1944.69ZM1841.84 1947.81L1838.72 1954.04H1844.96L1841.84 1947.81ZM822.75 1950.92L816.521 1960.27L825.87 1966.51L835.218 1963.39L832.104 1954.04L822.75 1950.92ZM1863.66 1950.92L1854.31 1960.27L1866.78 1966.51L1879.24 1960.27L1876.12 1954.04L1863.66 1950.92ZM844.567 1957.16L841.453 1966.51L847.682 1972.73L850.802 1957.16H844.567ZM878.849 1957.16L875.734 1969.62L881.963 1975.85L891.312 1972.73L894.432 1982.09L900.666 1978.97V1960.27L885.083 1957.16H878.849ZM916.245 1957.16L913.13 1966.51L925.593 1963.39H919.364L916.245 1957.16ZM1770.16 1957.16L1767.05 1966.51L1779.52 1963.39L1776.4 1957.16H1770.16ZM1795.09 1957.16L1791.98 1963.39L1801.33 1960.27L1795.09 1957.16ZM1810.68 1954.04L1801.33 1963.39L1804.44 1972.73L1813.8 1975.85L1816.91 1963.39L1810.68 1954.04ZM1838.72 1957.16L1835.61 1975.85L1848.08 1972.73L1844.96 1957.16H1838.72ZM804.052 1966.51L807.172 1975.85L813.401 1972.73L810.286 1966.51H804.052ZM816.521 1966.51V1972.73L825.87 1969.62L816.521 1966.51ZM1795.09 1966.51L1788.86 1972.73L1795.09 1982.09L1801.33 1975.85V1966.51H1795.09ZM1745.23 1969.62L1742.11 1975.85L1754.58 1978.97L1745.23 1969.62ZM841.453 1978.97V1988.32L847.682 1982.09L841.453 1978.97ZM847.682 1978.97L853.916 1988.32H866.385V1982.09L847.682 1978.97ZM1832.49 1978.97L1823.15 1985.2L1835.61 1988.32L1844.96 1978.97H1832.49ZM903.781 1982.09L900.666 1988.32H906.896L903.781 1982.09ZM1785.74 1982.09V1988.32L1791.98 1985.2L1785.74 1982.09ZM1844.96 1982.09V1988.32H1851.19V1982.09H1844.96ZM832.104 1985.2V1991.44L841.453 1988.32L832.104 1985.2ZM997.276 1985.2L994.161 1994.55L1000.39 2003.9L1006.62 1994.55H1000.39L997.276 1985.2ZM869.5 1988.32L875.734 1994.55V1988.32H869.5ZM919.364 1988.32L922.479 2000.79V1994.55L931.828 1991.44L919.364 1988.32ZM1692.25 1988.32L1695.37 1994.55L1698.48 1988.32H1692.25ZM1816.91 1988.32L1813.8 1994.55L1823.15 1991.44L1816.91 1988.32ZM938.062 1991.44L941.177 2003.9L947.411 1997.67L938.062 1991.44ZM950.526 1991.44L947.411 1997.67H953.646L950.526 1991.44ZM1545.78 1991.44L1548.9 1997.67L1552.01 1991.44H1545.78ZM1735.88 1991.44V1997.67L1742.11 1994.55L1735.88 1991.44ZM1748.35 1991.44L1751.46 1997.67L1754.58 1991.44H1748.35ZM1767.05 1991.44L1770.16 2000.79V1991.44H1767.05ZM1626.81 1994.55V2000.79H1633.04V1994.55H1626.81ZM1686.02 1994.55V2000.79H1692.25V1994.55H1686.02ZM860.151 1997.67L866.385 2007.02V1997.67H860.151ZM1149.98 1997.67V2003.9L1156.22 2000.79L1149.98 1997.67ZM1511.49 1997.67V2003.9H1505.26V2013.25L1517.73 2007.02L1514.61 1997.67H1511.49ZM1536.43 1997.67V2003.9H1542.66V1997.67H1536.43ZM1125.05 2003.9L1128.17 2010.14L1131.29 2003.9H1125.05ZM1140.64 2003.9L1143.75 2016.37L1146.86 2007.02L1140.64 2003.9ZM1171.8 2000.79V2007.02L1159.33 2003.9L1162.45 2013.25L1153.1 2022.6H1174.92L1178.03 2000.79H1171.8ZM1523.96 2003.9L1514.61 2013.25L1517.73 2025.72L1536.43 2022.6V2016.37H1530.19L1533.31 2003.9H1523.96ZM1545.78 2003.9L1542.66 2010.14H1548.9L1552.01 2016.37L1548.9 2003.9H1545.78ZM1561.36 2003.9V2010.14H1567.59V2003.9H1561.36ZM1573.82 2003.9L1580.06 2010.14V2003.9H1573.82ZM1586.29 2003.9V2010.14L1580.06 2013.25L1586.29 2022.6L1592.53 2019.48L1589.41 2003.9H1586.29ZM1131.29 2007.02L1128.17 2019.48L1134.4 2016.37L1131.29 2007.02ZM1657.97 2007.02V2016.37H1664.2V2007.02H1657.97ZM934.948 2010.14L931.828 2019.48L944.297 2022.6V2013.25L934.948 2010.14ZM1187.38 2013.25L1184.27 2025.72L1190.5 2013.25H1187.38ZM1502.15 2013.25L1505.26 2025.72L1508.38 2016.37L1502.15 2013.25ZM1558.24 2013.25V2019.48H1564.47V2013.25H1558.24ZM1698.48 2013.25L1695.37 2022.6H1701.6L1698.48 2013.25ZM1748.35 2013.25V2022.6L1763.93 2035.07L1767.05 2022.6L1748.35 2013.25ZM969.229 2016.37L953.646 2019.48L950.526 2038.18H956.76V2028.83L975.458 2022.6L969.229 2016.37ZM1028.44 2019.48L1025.32 2025.72H1031.56L1028.44 2019.48ZM1112.58 2019.48L1109.47 2031.95L1090.77 2028.83V2038.18H1103.23L1118.82 2041.3V2047.53L1137.52 2044.42L1125.05 2035.07L1121.94 2022.6L1112.58 2019.48ZM1720.3 2016.37L1714.07 2022.6L1735.88 2031.95V2025.72L1748.35 2022.6L1726.53 2019.48L1720.3 2016.37ZM1000.39 2022.6V2031.95L1006.62 2028.83L1000.39 2022.6ZM1570.71 2022.6L1555.12 2028.83V2035.07L1589.41 2038.18H1598.75V2028.83H1580.06L1583.18 2025.72L1570.71 2022.6ZM994.161 2025.72L991.041 2031.95H997.276L994.161 2025.72ZM1075.19 2025.72L1072.07 2035.07H1084.54L1075.19 2025.72ZM1193.61 2025.72V2041.3L1196.73 2044.42L1193.61 2056.88L1187.38 2063.11H1199.85L1212.31 2060L1206.08 2047.53L1209.2 2044.42L1202.96 2038.18L1199.85 2025.72H1193.61ZM1224.78 2025.72L1221.66 2038.18L1231.01 2031.95L1224.78 2025.72ZM1464.75 2025.72V2031.95L1458.52 2035.07H1467.86L1464.75 2025.72ZM1492.8 2025.72V2038.18L1495.91 2031.95L1505.26 2028.83L1492.8 2025.72ZM1611.22 2025.72V2038.18H1617.46V2025.72H1611.22ZM1707.83 2025.72V2031.95L1720.3 2028.83L1707.83 2025.72ZM1037.79 2022.6L1031.56 2028.83L1022.21 2031.95L1025.32 2041.3H1003.51L997.276 2044.42L991.041 2031.95L981.692 2028.83L984.807 2038.18L994.161 2041.3V2053.77L991.041 2063.11L1006.62 2069.35L1009.74 2075.58L1006.62 2053.77L1015.97 2047.53L1019.09 2060L1025.32 2066.23H1047.14V2060L1040.91 2053.77H1056.49L1050.25 2047.53L1040.91 2022.6H1037.79ZM1128.17 2028.83V2035.07H1143.75L1140.64 2028.83H1128.17ZM1474.1 2031.95L1470.98 2041.3L1477.21 2044.42L1480.33 2035.07L1474.1 2031.95ZM1620.57 2031.95V2038.18L1629.92 2035.07L1620.57 2031.95ZM962.995 2035.07L969.229 2044.42L972.343 2035.07H962.995ZM1003.51 2035.07L1009.74 2041.3V2035.07H1003.51ZM1072.07 2038.18V2044.42L1065.84 2047.53L1075.19 2053.77L1056.49 2056.88L1053.37 2063.11V2072.46L1065.84 2078.7L1062.72 2066.23L1075.19 2075.58L1090.77 2069.35L1093.89 2063.11L1087.65 2047.53H1081.42V2041.3L1072.07 2038.18ZM1143.75 2035.07L1146.86 2053.77L1137.52 2050.65L1134.4 2066.23L1153.1 2063.11L1165.57 2069.35V2075.58L1174.92 2072.46V2063.11L1181.15 2069.35L1184.27 2050.65L1171.8 2035.07L1149.98 2041.3V2035.07H1143.75ZM1215.43 2038.18L1218.55 2044.42L1221.66 2038.18H1215.43ZM1237.24 2038.18L1240.36 2047.53L1231.01 2050.65V2056.88H1237.24L1234.13 2060L1224.78 2056.88L1221.66 2072.46L1227.9 2081.81H1234.13V2072.46L1249.71 2066.23L1243.48 2038.18H1237.24ZM1489.68 2038.18V2053.77L1495.91 2044.42L1489.68 2038.18ZM1564.47 2038.18L1561.36 2047.53H1570.71V2038.18H1564.47ZM959.88 2041.3L956.76 2047.53H962.995L959.88 2041.3ZM978.578 2038.18L959.88 2050.65V2056.88L975.458 2053.77L987.927 2044.42H981.692L978.578 2038.18ZM1265.29 2041.3L1252.83 2053.77L1265.29 2063.11L1271.53 2060L1274.64 2069.35L1283.99 2066.23V2060L1287.11 2050.65L1271.53 2047.53L1265.29 2041.3ZM1446.05 2041.3L1439.82 2066.23L1449.17 2072.46H1458.52L1455.4 2081.81L1464.75 2078.7L1477.21 2069.35V2063.11H1467.86V2056.88L1474.1 2053.77H1467.86V2044.42L1452.28 2047.53V2041.3H1446.05ZM1611.22 2041.3V2047.53H1604.99L1598.75 2056.88H1589.41V2063.11L1611.22 2075.58H1617.46V2069.35L1629.92 2066.23L1626.81 2078.7H1633.04L1639.27 2063.11L1626.81 2053.77L1617.46 2050.65L1626.81 2047.53L1617.46 2041.3H1611.22ZM1112.58 2041.3L1106.35 2047.53H1115.7L1112.58 2041.3ZM1424.23 2044.42L1421.12 2050.65H1430.47L1427.35 2063.11L1436.7 2056.88V2047.53L1424.23 2044.42ZM1483.45 2047.53L1480.33 2066.23L1492.8 2060L1483.45 2047.53ZM1109.47 2050.65V2056.88L1115.7 2053.77L1109.47 2050.65ZM1121.94 2050.65L1128.17 2069.35L1134.4 2060L1128.17 2050.65H1121.94ZM1221.66 2050.65L1218.55 2056.88H1224.78L1221.66 2050.65ZM1402.42 2050.65L1411.77 2069.35L1421.12 2066.23L1424.23 2053.77L1414.89 2050.65H1402.42ZM1573.82 2050.65L1576.94 2056.88L1583.18 2053.77L1573.82 2050.65ZM1093.89 2053.77V2063.11H1100.12L1097 2053.77H1093.89ZM1492.8 2053.77L1499.03 2066.23L1505.26 2060L1492.8 2053.77ZM1100.12 2063.11L1106.35 2078.7L1109.47 2066.23L1100.12 2063.11ZM1118.82 2063.11L1121.94 2075.58L1125.05 2066.23L1118.82 2063.11ZM1218.55 2063.11L1215.43 2069.35H1221.66L1218.55 2063.11ZM1583.18 2063.11L1580.06 2072.46L1586.29 2084.93L1576.94 2088.05L1592.53 2091.16V2066.23L1583.18 2063.11ZM1483.45 2066.23L1489.68 2075.58V2066.23H1483.45ZM1567.59 2066.23L1570.71 2075.58L1573.82 2066.23H1567.59ZM1262.18 2072.46V2078.7L1268.41 2075.58L1262.18 2072.46ZM1424.23 2072.46V2078.7H1430.47V2072.46H1424.23ZM1533.31 2075.58L1530.19 2081.81H1536.43L1533.31 2075.58ZM1090.77 2078.7L1097 2084.93V2078.7H1090.77ZM1103.23 2078.7L1100.12 2091.16L1115.7 2088.05L1106.35 2084.93L1103.23 2078.7ZM1595.64 2078.7L1598.75 2084.93L1601.87 2078.7H1595.64ZM1614.34 2078.7V2084.93L1620.57 2081.81L1614.34 2078.7ZM1383.72 2081.81L1386.84 2091.16L1393.07 2084.93L1383.72 2081.81ZM1290.22 2084.93V2091.16L1296.46 2088.05L1290.22 2084.93ZM1299.57 2084.93L1305.81 2091.16V2084.93H1299.57ZM1629.92 2081.81L1620.57 2084.93L1623.69 2094.28H1629.92L1633.04 2081.81H1629.92Z" fill="#FEE0C8"/>
<path d="M1340.09 2112.98L1352.56 2116.1V2122.33L1358.79 2125.44V2119.21L1374.37 2122.33L1377.48 2131.68L1365.02 2128.56L1349.44 2150.38L1358.79 2144.15H1371.25V2150.38L1377.48 2153.5L1361.91 2159.73L1355.67 2156.61H1333.85L1330.74 2144.15L1333.85 2150.38L1343.2 2147.26L1324.5 2137.91V2131.68L1315.16 2128.56V2119.21L1330.74 2122.33L1340.09 2125.44V2112.98ZM1358.79 2147.26L1368.14 2153.5V2147.26H1358.79ZM2153.49 34.2826H2159.72V49.8659L2153.49 56.1003H2144.14L2141.03 62.3346L2131.68 59.2148L2128.56 65.4492L2134.79 68.5638H2125.44V74.7982H2119.21V68.5638H2097.4L2091.16 62.3346L2100.51 46.7513H2112.98L2119.21 65.4492H2125.44L2128.56 49.8659L2141.03 46.7513L2153.49 34.2826ZM1673.55 2047.53H1682.9V2053.77L1689.14 2056.88V2063.12L1707.83 2060V2069.35L1720.3 2075.58H1704.72L1698.48 2078.7L1692.25 2075.58L1695.37 2094.28L1686.02 2091.16L1682.9 2081.81L1676.67 2084.93V2072.46L1664.2 2075.58L1667.32 2063.12L1673.55 2060V2047.53ZM56.0986 1227.9H68.5622V1237.25L74.7966 1234.13V1240.37H81.0309L77.9111 1252.83L84.1455 1246.6H93.4945L90.3799 1259.06H84.1455L81.0309 1268.41L71.6768 1265.3L68.5622 1252.83L43.6299 1255.94V1249.71L59.2132 1246.6L56.0986 1227.9ZM2399.69 1589.41L2415.28 1592.53L2412.16 1604.99L2427.74 1608.11L2421.51 1614.34H2405.93L2402.81 1598.76H2396.58L2393.46 1620.57H2384.11L2380.99 1611.23L2387.23 1601.88H2393.46L2399.69 1589.41ZM1848.08 31.168L1851.19 43.6315H1860.54V52.9857H1851.19L1848.08 68.5638L1844.96 74.7982L1832.49 71.6836L1835.61 59.2148L1844.96 46.7513V34.2826L1848.08 31.168ZM2097.4 1826.26L2100.51 1832.5H2094.28V1838.73L2109.86 1835.61L2112.98 1854.31H2103.63L2084.93 1857.43V1844.96L2088.05 1851.19L2091.16 1841.85L2088.05 1829.38L2097.4 1826.26ZM2608.5 1240.37L2617.85 1249.71H2627.2V1255.94L2602.27 1252.83L2599.15 1265.3H2589.8V1259.06L2580.45 1262.18V1246.6L2586.68 1243.48L2589.8 1255.94L2602.27 1246.6H2608.5V1240.37ZM52.9788 1383.72L65.4476 1389.95L71.6768 1399.3L81.0309 1411.77L77.9111 1424.24L62.3278 1411.77V1402.42H56.0986L49.8643 1389.95L52.9788 1383.72ZM65.4476 1405.54L71.6768 1411.77V1405.54H65.4476ZM1059.6 2094.28L1075.19 2100.51V2109.87H1059.6L1047.14 2112.98V2103.63L1050.25 2097.4L1059.6 2094.28ZM2596.03 1312.04L2608.5 1324.51H2617.85L2624.08 1340.09H2617.85L2620.96 1349.44L2608.5 1346.32L2611.61 1333.86L2592.92 1327.63L2596.03 1312.04ZM274.25 1570.71L283.599 1573.83V1592.53H274.25L261.786 1595.64L255.552 1583.18L268.015 1580.06L271.135 1586.29L274.25 1570.71ZM576.552 1832.5L589.015 1838.73H598.364V1851.19L610.833 1848.08L601.484 1857.43L582.781 1851.19L579.666 1841.85L573.432 1835.61L576.552 1832.5Z" fill="#FEE0C8"/>
<path d="M2412.16 1570.71L2421.51 1573.83L2418.39 1586.29L2424.62 1580.06H2433.97L2430.86 1595.64L2415.28 1589.41L2409.04 1592.53L2405.93 1583.18L2412.16 1570.71ZM922.479 2031.95L928.714 2044.42L941.177 2047.53L944.297 2060L931.828 2056.88L934.948 2047.53L925.594 2050.65L916.245 2044.42V2038.18H922.479V2031.95ZM286.719 1589.41L296.068 1595.64L283.599 1614.34H274.25L277.37 1598.76L274.25 1592.53L286.719 1589.41ZM2624.08 1312.04L2642.78 1315.16V1324.51H2636.55L2633.43 1330.74L2620.96 1327.63L2624.08 1324.51L2614.73 1318.28L2624.08 1312.04ZM302.297 1598.76L308.531 1601.88V1620.57H299.182L292.948 1601.88L302.297 1598.76ZM1287.11 2122.33L1305.81 2134.79L1296.46 2141.03L1283.99 2144.15V2125.44L1287.11 2122.33ZM1380.6 2128.56L1402.42 2131.68L1408.65 2141.03H1386.84V2131.68L1380.6 2128.56ZM74.7969 1318.28L81.0312 1324.51L93.4948 1321.39L96.6094 1327.63L81.0312 1333.86L68.5625 1327.63V1321.39L74.7969 1318.28ZM473.708 1760.82L476.823 1770.17L489.286 1767.05L483.057 1776.4H476.823L473.708 1782.63L470.589 1767.05L473.708 1760.82ZM735.49 1925.99L744.839 1929.1L747.958 1941.57L732.375 1938.45L735.49 1925.99ZM1982.08 1922.88L1991.43 1925.99L1985.2 1941.57L1978.97 1947.81L1975.85 1935.34L1982.08 1929.1V1922.88ZM364.63 1689.14H370.859L364.63 1704.72L352.161 1701.6L355.281 1692.26L364.63 1689.14ZM268.016 1592.53L274.25 1601.88L271.135 1617.46L268.016 1611.22H258.667L261.786 1604.99L264.901 1601.88L268.016 1592.53ZM2677.06 1327.63L2692.65 1333.86V1346.32H2686.41V1336.97L2677.06 1340.09V1327.63ZM112.193 1259.06L118.427 1262.18L115.312 1277.76L105.958 1280.88V1271.53L112.193 1259.06ZM1555.12 0L1561.36 12.4688H1539.54L1548.9 3.11979L1555.12 0ZM2558.64 1262.18H2564.87L2571.1 1277.76L2564.87 1280.88L2558.64 1277.76L2555.52 1265.3L2558.64 1262.18ZM2356.06 1689.14L2371.65 1692.26L2362.3 1701.6L2349.83 1695.37L2356.06 1689.14ZM2645.9 1327.63H2652.13V1333.86H2645.9L2649.01 1343.21L2639.66 1340.09V1333.86L2633.43 1330.74L2645.9 1327.63ZM1065.84 3.11979L1081.42 6.23438L1084.54 12.4688H1065.84V3.11979ZM1586.29 2116.09L1598.76 2119.21L1595.64 2128.56H1586.29V2116.09ZM551.62 1810.68L560.969 1813.8L567.198 1832.49L557.849 1829.38V1820.03H551.62V1810.68ZM46.75 1308.93L52.9792 1312.04L62.3281 1327.63L52.9792 1324.51L46.75 1318.28V1308.93ZM2599.15 1234.13L2605.38 1243.48L2592.92 1249.71V1240.36L2599.15 1234.13ZM2589.8 1209.2L2599.15 1212.31L2596.03 1221.66L2583.57 1218.55V1212.31L2589.8 1209.2ZM1714.07 18.6979L1726.53 21.8177L1723.42 34.2813L1714.07 24.9323V18.6979ZM710.557 1929.1L713.677 1938.45L723.026 1941.57L707.443 1944.69L704.328 1932.22L710.557 1929.1ZM617.062 1866.78L629.531 1869.89L626.411 1879.24L610.833 1873.01L617.062 1866.78ZM43.6302 1290.22L49.8646 1293.34L43.6302 1305.81H37.3958V1299.58L31.1667 1296.46L43.6302 1290.22ZM906.896 18.6979L910.016 24.9323L903.781 34.2813H897.547L900.667 21.8177L906.896 18.6979ZM177.641 1527.08H196.339V1536.43L177.641 1530.2V1527.08ZM2605.38 1274.65H2611.61V1280.88H2605.38V1287.11H2596.03V1280.88L2605.38 1274.65ZM130.891 1202.96L137.125 1206.08L134.01 1215.43L124.661 1218.55V1206.08L130.891 1202.96ZM1458.52 28.0521H1467.86V40.5156L1458.52 37.401V28.0521ZM1751.46 2047.53L1760.81 2053.77L1757.7 2060H1748.35L1751.46 2047.53ZM1654.85 2044.42L1664.2 2056.88L1661.09 2063.11H1654.85V2044.42ZM2137.91 1810.68L2141.03 1820.03L2128.56 1826.26L2131.68 1813.8L2137.91 1810.68ZM2234.52 1754.58L2250.1 1757.7V1763.93L2237.64 1760.82L2234.52 1754.58ZM2324.9 1689.14L2334.25 1695.37L2331.13 1704.72L2324.9 1701.6L2321.78 1692.26L2324.9 1689.14ZM327.229 1689.14H333.464V1695.37L339.698 1698.48H324.115L321 1692.26L327.229 1689.14ZM2511.89 1125.05L2518.12 1128.17V1143.75L2511.89 1140.64L2508.77 1128.17L2511.89 1125.05ZM532.917 65.4479L554.734 68.5625L545.385 74.7969L532.917 68.5625V65.4479ZM1259.06 2116.09L1265.29 2119.21L1262.18 2131.68V2125.44H1255.94L1259.06 2116.09ZM666.927 1897.94L679.396 1901.06V1907.29L666.927 1904.17V1897.94ZM2620.96 1386.84L2624.08 1396.19L2611.61 1402.42L2614.73 1393.07H2620.96V1386.84ZM59.2135 1336.97L62.3281 1346.32L52.9792 1355.67L56.099 1340.09L59.2135 1336.97ZM2630.31 1293.34L2636.55 1305.81L2627.2 1308.93L2630.31 1293.34ZM62.3281 1274.65L74.7969 1280.88V1287.11L59.2135 1280.88L62.3281 1274.65ZM2228.29 65.4479L2240.76 71.6823L2228.29 74.7969V65.4479ZM2078.7 65.4479L2088.05 68.5625L2084.93 74.7969L2069.35 71.6823L2078.7 65.4479ZM392.677 65.4479L398.911 71.6823L386.443 74.7969L383.328 68.5625L392.677 65.4479ZM794.703 37.401L797.823 43.6302L794.703 49.8646H788.469L785.354 40.5156L794.703 37.401ZM1280.88 2156.61L1293.34 2159.72L1287.11 2165.96L1277.76 2159.72L1280.88 2156.61ZM1321.39 2144.15H1327.62L1330.74 2159.72L1321.39 2153.5V2144.15ZM1259.06 2094.28L1268.41 2100.51V2106.75L1259.06 2103.63V2094.28ZM1430.47 2094.28L1433.58 2103.63L1421.12 2106.75L1430.47 2094.28ZM910.016 2022.6L922.479 2031.95H913.13L906.896 2025.72L910.016 2022.6ZM2013.25 1869.89H2025.71L2022.6 1879.24L2013.25 1876.13V1869.89ZM445.656 1754.58H455.005V1760.82L442.542 1763.93L439.427 1757.7L445.656 1754.58ZM398.911 1729.65H405.146V1735.89H411.375L408.26 1742.11L398.911 1735.89V1729.65ZM2315.55 1695.37L2324.9 1701.6L2315.55 1707.83L2312.43 1698.48L2315.55 1695.37ZM2571.1 1427.35L2580.45 1430.47L2577.33 1439.82L2571.1 1436.7V1427.35ZM2633.43 1380.6L2639.66 1393.07L2630.31 1389.95L2633.43 1380.6ZM12.4635 1327.63L18.6979 1333.86L15.5833 1340.09L6.23438 1336.97L12.4635 1327.63ZM2608.5 1296.46L2620.96 1299.58H2611.61L2608.5 1312.04V1296.46ZM2614.73 1277.76L2627.2 1283.99L2617.85 1287.11L2611.61 1280.88L2614.73 1277.76ZM52.9792 1274.65L59.2135 1283.99L49.8646 1287.11L43.6302 1280.88H52.9792V1274.65ZM1159.33 28.0521H1165.57L1168.68 37.401L1156.22 34.2813L1159.33 28.0521ZM1405.54 2153.5L1411.77 2156.61V2162.84L1399.3 2156.61L1405.54 2153.5ZM1414.89 2144.15L1418 2153.5L1411.77 2156.61L1408.65 2147.26L1414.89 2144.15ZM1430.47 2116.09L1433.58 2128.56H1427.35L1430.47 2116.09ZM1034.67 2044.42L1037.79 2053.77L1028.44 2056.88L1031.56 2047.53L1034.67 2044.42ZM894.432 2019.48H900.667L894.432 2031.95L891.312 2025.72L894.432 2019.48ZM1901.06 1960.27H1907.29L1904.17 1975.85L1901.06 1963.39V1960.27ZM785.354 1960.27L791.589 1972.73H782.24L785.354 1960.27ZM1935.34 1950.92H1944.69L1941.57 1960.27H1935.34V1950.92ZM2059.99 1866.78H2069.35L2066.23 1873.01H2056.88L2059.99 1866.78ZM673.161 1866.78L679.396 1873.01L666.927 1876.13V1869.89L673.161 1866.78ZM486.172 1779.52L492.406 1782.63L483.057 1788.86L476.823 1782.63L486.172 1779.52ZM2278.15 1757.7L2284.39 1763.93L2275.04 1773.28L2278.15 1757.7ZM377.094 1710.95L380.214 1720.3H370.859V1714.07L377.094 1710.95ZM370.859 1695.37L377.094 1698.48V1704.72H367.745L370.859 1695.37ZM243.089 1608.11L249.318 1611.22L246.203 1617.46L239.969 1620.57L243.089 1608.11ZM2571.1 1446.05L2574.22 1452.28H2580.45V1458.52L2571.1 1455.4V1446.05ZM115.312 1446.05L121.542 1449.17L118.427 1458.52H112.193L115.312 1446.05ZM2614.73 1408.65H2630.31L2627.2 1414.89L2614.73 1411.77V1408.65ZM0 1249.71H9.34896L6.23438 1259.06L0 1255.94V1249.71ZM2539.94 1206.08H2549.29L2546.17 1215.43L2539.94 1212.31V1206.08ZM105.958 1181.15H115.312L109.078 1193.61L105.958 1181.15ZM2218.94 68.5625L2225.17 74.7969L2212.7 77.9115L2209.59 71.6823L2218.94 68.5625ZM2250.1 59.2136L2256.33 62.3333L2253.22 68.5625L2243.87 65.4479L2250.1 59.2136ZM367.745 59.2136L380.214 62.3333V68.5625L367.745 62.3333V59.2136ZM1829.38 40.5156L1838.72 43.6302L1835.61 49.8646H1829.38V40.5156ZM1274.64 2144.15L1280.88 2147.26L1277.76 2156.61L1274.64 2144.15ZM1449.17 2131.68H1458.52L1455.4 2141.03L1449.17 2137.91V2131.68Z" fill="#FEE0C8"/>
</svg>
