<svg width="1269" height="2121" viewBox="0 0 1269 2121" fill="none" xmlns="http://www.w3.org/2000/svg">
<path d="M610.37 16.875L615.995 28.1302H624.432L630.057 25.3177V16.875L646.938 19.6875L644.125 25.3177L638.5 28.1302V36.5677H632.87L630.057 33.7552V42.1927L638.5 39.3802L649.75 28.1302L652.563 39.3802H675.063V33.7552H683.5L686.313 39.3802L691.943 36.5677V30.9427L706.005 33.7552L700.38 19.6875H708.818L725.693 16.875V25.3177L731.318 36.5677V45.0052L745.385 42.1927V36.5677L767.885 30.9427V36.5677H773.51V45.0052H779.135V50.6302H773.51L784.76 61.8802L787.573 56.2552L801.641 59.0677V70.3177L810.078 67.5052L812.891 75.9479L824.141 87.1979L829.766 90.0104L855.083 104.073L883.208 118.135L925.401 132.203L1009.79 151.891L1063.23 165.953L1113.85 188.458L1141.98 205.333L1170.11 230.646L1201.05 270.026L1223.56 309.406L1237.62 343.161L1257.31 410.667L1265.74 464.109L1268.56 542.865V604.745L1262.93 708.818L1257.31 728.51L1254.49 734.135H1260.12L1251.68 751.01L1257.31 753.823V767.885H1248.87V773.516H1240.43L1243.24 781.953L1254.49 790.391L1248.87 796.016L1243.24 790.391L1231.99 793.203L1229.18 784.766L1226.37 779.141H1215.11L1226.37 793.203L1215.11 798.828L1209.49 796.016L1206.68 815.703L1212.3 818.516L1203.86 821.328L1198.24 818.516L1192.61 832.583L1164.48 829.771L1161.67 841.021L1153.23 843.833L1147.61 849.458H1139.17L1136.36 843.833L1122.3 860.708H1116.67V866.333L1102.6 869.146L1096.98 883.214H1102.6L1099.79 894.464L1074.48 891.651L1063.23 894.464L1051.97 883.214L1049.16 874.771L1040.72 871.958L1037.91 860.708V869.146L1026.66 866.333V855.083L1009.79 869.146L998.531 916.964L992.906 956.344V1009.79L1009.79 1080.1L1026.66 1158.86L1063.23 1265.75L1096.98 1400.76L1122.3 1502.02L1141.98 1569.53L1158.86 1645.47L1167.3 1704.54L1172.93 1788.93V1915.5L1167.3 1929.56L1156.05 1926.75V1932.38H1161.67L1158.86 1938L1153.23 1935.19V1929.56H1136.36L1125.11 1949.26L1139.17 1966.13L1141.98 1971.76L1150.42 1977.38L1139.17 1980.19L1125.11 1977.38L1122.3 1985.82L1111.04 1983.01L1113.85 1991.44L1111.04 2002.7L1108.23 1994.26L1099.79 1997.07L1094.17 2008.32L1082.92 2005.51L1080.1 2019.57L1074.48 2016.76L1071.67 2028.01H1066.04L1068.85 2036.45L1060.41 2042.07L1054.79 2033.64H1049.16L1043.54 2039.26L1035.1 2044.89V2053.33L1023.85 2056.14L1012.6 2047.7V2056.14L1018.22 2061.77L1004.16 2067.39V2053.33L987.281 2050.52L990.094 2058.95H981.656L984.469 2070.2L978.844 2075.83L973.219 2067.39L961.969 2061.77L959.156 2058.95L961.969 2075.83L953.526 2073.02L947.901 2058.95L936.651 2073.02H931.026L928.214 2084.27L916.964 2089.89L911.339 2087.08L900.083 2089.89L902.901 2084.27L900.083 2075.83L883.208 2078.64L869.146 2070.2H863.521L857.896 2064.58L849.458 2075.83L843.828 2073.02V2067.39H838.203L843.828 2078.64L835.391 2081.45L832.578 2073.02V2081.45L829.766 2089.89H824.141L821.328 2084.27H801.641L793.198 2081.45L790.385 2070.2L781.948 2078.64L779.135 2075.83L767.885 2087.08H762.26L759.448 2075.83L753.823 2073.02L751.01 2089.89L742.573 2087.08L745.385 2078.64L731.318 2084.27L734.13 2073.02L720.068 2070.2L708.818 2058.95L694.755 2056.14V2047.7H686.313L680.688 2053.33L669.438 2042.07H661L655.375 2036.45H652.563L649.75 2013.95L644.125 2011.14V1999.89H624.432V2013.95L615.995 2036.45H610.37V2042.07L599.12 2044.89L596.307 2050.52L579.427 2044.89L576.615 2047.7L573.802 2058.95H559.74L554.115 2061.77L551.302 2070.2L540.052 2075.83L534.427 2081.45H525.984V2095.52H520.359L514.734 2075.83L506.297 2081.45L509.109 2087.08H500.672V2081.45H495.047V2075.83L489.422 2073.02L486.609 2078.64H478.172L469.729 2084.27L461.292 2089.89L455.667 2092.7L450.042 2087.08L438.792 2078.64L441.604 2070.2H450.042L438.792 2067.39V2073.02H433.167L435.979 2081.45L424.729 2075.83L427.542 2073.02L416.286 2070.2V2061.77L407.849 2064.58L405.036 2070.2L390.974 2073.02L385.349 2078.64L365.656 2073.02L368.474 2089.89L357.219 2087.08L345.969 2089.89L343.156 2084.27L337.531 2087.08L334.719 2073.02L331.906 2064.58H326.281L323.469 2058.95L317.844 2067.39H312.214L315.031 2058.95L306.589 2061.77L300.964 2067.39H295.339L289.714 2075.83L286.901 2056.14L298.151 2058.95V2047.7L286.901 2053.33L281.276 2058.95L275.651 2050.52L267.214 2056.14L255.958 2061.77L253.146 2050.52H247.521V2056.14H241.896V2050.52L227.833 2047.7L230.646 2036.45L239.083 2039.26L233.458 2033.64L225.021 2036.45L205.328 2030.82H199.703L194.078 2013.95L185.641 2005.51H174.391L168.766 1997.07H163.141L165.953 2013.95L160.328 2019.57L157.516 2011.14V1991.44L163.141 1985.82L160.328 1974.57H154.703L151.885 1985.82L146.26 1980.19L132.198 1977.38H120.948L132.198 1966.13L146.26 1949.26L140.635 1938L135.01 1929.56L109.698 1938L95.6302 1909.88V1819.86L101.26 1710.17L112.51 1631.41L140.635 1518.9L160.328 1451.39L199.703 1288.25L219.396 1226.37L244.708 1150.43L261.589 1071.67L275.651 1012.6V950.719L264.401 888.839L255.958 866.333L241.896 855.083V869.146L230.646 871.958L227.833 877.589L208.146 874.771L219.396 880.401L208.146 888.839L205.328 894.464L202.516 897.276L213.771 902.901L216.583 908.526L205.328 911.339L194.078 908.526L188.453 894.464L191.266 888.839H185.641L182.828 894.464L168.766 891.651L165.953 883.214L154.703 891.651L149.073 886.026L135.01 880.401L132.198 871.958H137.823L143.448 877.589L154.703 871.958L151.885 863.521L146.26 866.333L137.823 846.646H129.385L120.948 855.083V849.458L106.885 852.271L112.51 857.896L106.885 871.958H98.4427L95.6302 855.083L101.26 843.833V835.396L98.4427 832.583L92.8177 821.328V810.078L73.1302 812.891L64.6927 821.328L59.0677 818.516L61.8802 810.078L59.0677 796.016L50.6302 798.828V793.203L45 790.391L53.4427 784.766L50.6302 781.953L47.8177 776.328L39.375 787.578L33.75 801.641L22.5 779.141L19.6875 770.703L14.0625 765.073L11.25 751.01V742.573L8.4375 734.135H16.875L19.6875 725.698L5.625 728.51L0 644.125V483.797L8.4375 421.917L22.5 368.474L39.375 320.656L61.8802 278.464L87.1927 244.714L112.51 216.583L143.448 194.083L191.266 171.578L233.458 157.516L343.156 132.203L385.349 118.135L424.729 98.4479L438.792 90.0104H444.417L450.042 78.7604L458.479 75.9479L464.104 67.5052L469.729 59.0677L475.359 53.4427L480.984 56.2552V61.8802L495.047 59.0677L492.234 45.0052L497.859 36.5677H503.484L506.297 30.9427L525.984 36.5677L534.427 45.0052L542.865 47.8177L551.302 39.3802L562.552 42.1927V36.5677L579.427 30.9427V36.5677L576.615 39.3802L593.495 33.7552L599.12 39.3802H615.995L601.932 33.7552L596.307 19.6875L610.37 16.875ZM714.443 22.5052L708.818 25.3177L711.63 30.9427L717.255 28.1302L714.443 22.5052ZM708.818 36.5677L711.63 42.1927L722.88 36.5677H708.818ZM706.005 39.3802L703.193 45.0052H708.818L706.005 39.3802ZM509.109 42.1927V47.8177L503.484 50.6302L517.547 53.4427L509.109 42.1927ZM756.635 45.0052L753.823 53.4427L767.885 56.2552L765.073 47.8177L756.635 45.0052ZM520.359 50.6302V56.2552L525.984 53.4427L520.359 50.6302ZM748.198 50.6302L742.573 56.2552H751.01L748.198 50.6302ZM1248.87 720.073L1246.06 731.323H1251.68L1248.87 720.073ZM1240.43 736.948L1243.24 742.573L1248.87 736.948H1240.43ZM22.5 753.823L19.6875 765.073L25.3125 770.703L33.75 762.26L39.375 756.635L22.5 753.823ZM1231.99 756.635L1234.81 762.26L1240.43 759.448L1231.99 756.635ZM1246.06 759.448L1243.24 770.703L1251.68 762.26L1246.06 759.448ZM98.4427 781.953V787.578L106.885 784.766L98.4427 781.953ZM67.5052 793.203L70.3177 801.641L73.1302 793.203H67.5052ZM1181.36 793.203V801.641L1189.8 804.453L1195.43 798.828L1181.36 793.203ZM1198.24 793.203L1203.86 801.641V793.203H1198.24ZM75.9427 796.016V801.641L84.3802 804.453L81.5677 796.016H75.9427ZM92.8177 798.828L98.4427 807.266V798.828H92.8177ZM1170.11 798.828V821.328H1175.74V826.958L1181.36 824.146L1175.74 798.828H1170.11ZM112.51 801.641L109.698 810.078H118.135L112.51 801.641ZM1153.23 801.641L1156.05 815.703L1161.67 812.891V807.266H1156.05L1153.23 801.641ZM120.948 807.266L118.135 812.891L126.573 810.078L120.948 807.266ZM1195.43 807.266L1192.61 815.703H1198.24L1195.43 807.266ZM1181.36 810.078L1184.18 818.516L1186.99 810.078H1181.36ZM149.073 835.396V841.021H154.703V835.396H149.073ZM115.323 838.208V846.646L120.948 843.833V838.208H115.323ZM126.573 838.208L123.76 843.833H129.385L126.573 838.208ZM1091.35 846.646L1088.54 863.521L1099.79 857.896L1094.17 855.083L1091.35 846.646ZM177.203 849.458V855.083L171.578 857.896L182.828 863.521L180.016 849.458H177.203ZM182.828 852.271L188.453 860.708V852.271H182.828ZM1029.47 852.271V863.521H1035.1V852.271H1029.47ZM1111.04 855.083V860.708H1116.67V855.083H1111.04ZM196.891 857.896L202.516 863.521V857.896H196.891ZM222.208 857.896L225.021 863.521H233.458L230.646 857.896H222.208ZM1060.41 857.896L1068.85 863.521L1071.67 857.896H1060.41ZM163.141 860.708L160.328 871.958L165.953 874.771L171.578 869.146L163.141 860.708ZM191.266 866.333L188.453 877.589L194.078 880.401L199.703 874.771V866.333H191.266ZM1071.67 866.333L1074.48 877.589L1080.1 874.771L1077.29 866.333H1071.67ZM1085.73 866.333L1082.92 877.589L1094.17 874.771V869.146L1085.73 866.333ZM180.016 866.333L174.391 871.958L185.641 874.771L182.828 866.333H180.016ZM1060.41 869.146L1054.79 871.958V880.401H1068.85L1066.04 869.146H1060.41ZM182.828 877.589L180.016 883.214L191.266 886.026V880.401L182.828 877.589ZM1074.48 880.401L1082.92 886.026L1091.35 880.401H1074.48ZM106.885 1918.31L109.698 1932.38L115.323 1929.56L112.51 1918.31H106.885ZM1158.86 1918.31L1161.67 1923.94L1164.48 1918.31H1158.86ZM143.448 1960.51L137.823 1963.32L140.635 1968.94L146.26 1966.13L143.448 1960.51ZM1111.04 1963.32V1968.94H1116.67V1963.32H1111.04ZM154.703 1963.32L146.26 1968.94L157.516 1971.76L154.703 1963.32ZM174.391 1988.63V1994.26H180.016V1988.63H174.391ZM208.146 2016.76L205.328 2025.2H213.771L210.958 2016.76H208.146ZM1060.41 2016.76L1057.6 2025.2H1066.04L1063.23 2016.76H1060.41ZM1057.6 2028.01V2033.64L1063.23 2030.82L1057.6 2028.01ZM1032.29 2030.82L1037.91 2036.45V2030.82H1032.29ZM691.943 2039.26L694.755 2047.7V2039.26H691.943ZM320.656 2042.07L323.469 2047.7L326.281 2042.07H320.656ZM261.589 2044.89V2050.52L267.214 2047.7L261.589 2044.89ZM956.344 2044.89L967.594 2050.52L970.406 2061.77L981.656 2056.14V2050.52H976.031L973.219 2044.89H956.344ZM762.26 2047.7L759.448 2058.95L770.698 2053.33L762.26 2047.7ZM379.724 2050.52L382.536 2056.14H388.161V2050.52H379.724ZM500.672 2050.52V2056.14L509.109 2058.95V2050.52H500.672ZM697.568 2050.52L703.193 2056.14V2050.52H697.568ZM883.208 2050.52L886.021 2056.14H891.646V2050.52H883.208ZM348.781 2053.33L345.969 2058.95L354.406 2056.14L348.781 2053.33ZM736.943 2053.33L742.573 2058.95V2053.33H736.943ZM919.776 2053.33V2058.95L925.401 2056.14L919.776 2053.33ZM334.719 2058.95L337.531 2067.39L343.156 2061.77L334.719 2058.95ZM753.823 2058.95L751.01 2064.58L762.26 2067.39L765.073 2061.77L753.823 2058.95ZM514.734 2058.95L506.297 2064.58L514.734 2067.39L520.359 2061.77L514.734 2058.95ZM931.026 2058.95L925.401 2064.58L933.839 2067.39V2058.95H931.026ZM818.516 2067.39L824.141 2073.02V2067.39H818.516ZM340.344 2070.2L343.156 2075.83L348.781 2073.02L340.344 2070.2ZM925.401 2070.2L922.589 2075.83H928.214L925.401 2070.2Z" fill="#FEE0C8"/>
<path d="M1116.67 866.333L1130.73 880.401L1127.92 886.026H1105.42L1099.79 877.589L1102.6 869.146L1116.67 866.333ZM1147.61 866.333L1161.67 871.958V880.401L1153.23 888.839L1136.36 891.651L1130.73 883.214L1141.98 880.401L1147.61 866.333ZM75.9427 812.891L87.1927 815.703L92.8177 821.328V829.771L81.5677 835.396H73.1302L70.3177 818.516L75.9427 812.891ZM565.365 16.875L570.99 19.6875L565.365 33.7552L548.49 39.3802H540.052L545.677 25.3177L559.74 28.1302V19.6875L565.365 16.875ZM1172.93 829.771L1186.99 841.021V846.646L1184.18 849.458H1189.8V855.083H1195.43L1192.61 866.333L1186.99 863.521L1178.55 855.083L1167.3 849.458L1170.11 843.833L1172.93 846.646L1175.74 838.208L1172.93 829.771ZM649.75 16.875L663.813 19.6875L669.438 16.875L675.063 22.5052V33.7552L652.563 36.5677L655.375 22.5052L649.75 16.875ZM1108.23 886.026L1113.85 897.276L1122.3 900.089L1119.48 908.526H1111.04L1108.23 914.151L1099.79 911.339V894.464H1108.23V886.026ZM1161.67 849.458L1172.93 855.083V871.958L1158.86 869.146V860.708L1150.42 866.333L1153.23 855.083L1161.67 849.458ZM1161.67 852.271V857.896L1167.3 855.083L1161.67 852.271ZM1136.36 1938L1139.17 1943.63L1147.61 1940.81H1161.67L1158.86 1946.44L1153.23 1952.07L1139.17 1949.26L1141.98 1954.88L1133.55 1957.69L1130.73 1943.63L1136.36 1938ZM81.5677 846.646L84.3802 852.271H90.0052V860.708L95.6302 863.521L87.1927 866.333L84.3802 871.958L73.1302 860.708L78.7552 849.458L81.5677 846.646ZM942.276 2070.2L953.526 2075.83L950.714 2084.27H936.651V2075.83L942.276 2070.2ZM323.469 2067.39L334.719 2075.83V2081.45L320.656 2084.27L317.844 2075.83L323.469 2067.39ZM132.198 1940.81L140.635 1943.63V1949.26H126.573L115.323 1952.07L118.135 1943.63L132.198 1940.81ZM1071.67 894.464L1077.29 897.276L1074.48 908.526H1054.79V902.901L1068.85 900.089L1071.67 894.464ZM126.573 874.771L135.01 883.214L137.823 891.651H123.76L126.573 874.771ZM742.573 19.6875L753.823 28.1302V33.7552L734.13 28.1302L736.943 22.5052L742.573 19.6875ZM523.172 19.6875L537.24 25.3177L534.427 33.7552L520.359 28.1302L523.172 19.6875ZM160.328 886.026L163.141 897.276L157.516 908.526H151.885L149.073 897.276H154.703L160.328 886.026ZM185.641 911.339H196.891V916.964H191.266L182.828 925.401L180.016 914.151L185.641 911.339ZM165.953 894.464L168.766 905.714L165.953 914.151L160.328 911.339L163.141 900.089L165.953 894.464ZM143.448 1994.26L146.26 2002.7L143.448 2008.32L149.073 2011.14L135.01 2008.32L137.823 1999.89H143.448V1994.26ZM1074.48 908.526L1088.54 914.151L1082.92 922.589L1074.48 916.964V908.526ZM120.948 866.333L126.573 874.771L120.948 888.839L115.323 877.589L120.948 866.333ZM87.1927 838.208H95.6302V852.271L84.3802 846.646L87.1927 838.208ZM618.807 0H624.432V11.25L630.057 14.0625L615.995 11.25L618.807 0ZM1049.16 2036.45L1051.97 2044.89L1057.6 2047.7H1046.35L1049.16 2036.45ZM1088.54 2008.32L1096.98 2016.76L1082.92 2022.39L1088.54 2008.32ZM801.641 2098.33H810.078V2115.21L804.453 2106.77L801.641 2098.33ZM787.573 2084.27L796.016 2087.08L781.948 2098.33L787.573 2084.27ZM475.359 2084.27H483.797V2092.7L489.422 2095.52L478.172 2092.7L475.359 2084.27ZM312.214 2070.2L317.844 2073.02L315.031 2087.08L309.401 2084.27L312.214 2070.2ZM202.516 2030.82L210.958 2036.45L208.146 2044.89L202.516 2039.26V2030.82ZM177.203 2008.32L182.828 2011.14L185.641 2019.57L174.391 2013.95L177.203 2008.32ZM1102.6 2008.32H1111.04L1113.85 2016.76H1105.42L1102.6 2008.32ZM73.1302 877.589L87.1927 883.214L75.9427 886.026L73.1302 877.589ZM67.5052 824.146V832.583L61.8802 835.396V829.771L56.2552 826.958L67.5052 824.146ZM323.469 2095.52L331.906 2098.33L320.656 2103.96L317.844 2098.33L323.469 2095.52ZM42.1875 798.828H50.6302L47.8177 812.891L42.1875 801.641V798.828ZM942.276 2095.52L950.714 2101.14L947.901 2106.77L939.464 2098.33L942.276 2095.52ZM857.896 2067.39L863.521 2070.2V2075.83H855.083L857.896 2067.39ZM407.849 2067.39L413.474 2070.2V2075.83H405.036L407.849 2067.39ZM1175.74 874.771L1178.55 880.401L1172.93 891.651V877.589L1175.74 874.771ZM1133.55 849.458L1141.98 852.271L1136.36 860.708L1133.55 849.458ZM70.3177 838.208L81.5677 841.021L64.6927 843.833L70.3177 838.208ZM1201.05 826.958L1212.3 829.771L1203.86 835.396L1201.05 826.958ZM1220.74 821.328L1223.56 829.771H1215.11V824.146L1220.74 821.328ZM19.6875 784.766H25.3125L19.6875 796.016L16.875 787.578L19.6875 784.766ZM677.875 19.6875L683.5 22.5052V28.1302H675.063L677.875 19.6875ZM528.802 5.625L537.24 8.4375L528.802 14.0625V5.625ZM357.219 2089.89L365.656 2101.14L357.219 2098.33V2089.89ZM812.891 2084.27L821.328 2089.89L810.078 2092.7L812.891 2084.27ZM303.776 2075.83L306.589 2087.08H300.964L303.776 2075.83ZM953.526 2078.64H959.156V2087.08H953.526V2078.64ZM143.448 897.276L149.073 900.089L146.26 908.526L143.448 897.276ZM1040.72 880.401L1051.97 886.026L1046.35 888.839L1040.72 886.026V880.401ZM1189.8 877.589L1195.43 880.401L1192.61 886.026L1184.18 883.214H1189.8V877.589Z" fill="#FEE0C8"/>
<path d="M106.885 871.958L118.135 874.771H112.51L109.698 880.401L106.885 871.958ZM132.198 849.458L137.823 852.271L132.198 860.708L129.385 852.271L132.198 849.458ZM1215.11 801.641L1220.74 807.266L1217.93 812.891L1212.3 810.078L1215.11 801.641ZM1234.81 796.016L1246.06 798.828L1243.24 804.453L1234.81 796.016ZM576.615 14.0625L582.245 25.3177L576.615 28.1302V14.0625ZM570.99 5.625L579.427 8.4375L573.802 14.0625L570.99 5.625ZM812.891 2101.14H824.141L821.328 2106.77L812.891 2101.14ZM458.479 2098.33H466.917V2103.96L458.479 2101.14V2098.33ZM908.526 2095.52L914.151 2098.33L908.526 2103.96V2095.52ZM430.354 2095.52L438.792 2098.33L430.354 2101.14V2095.52ZM438.792 2084.27L450.042 2087.08L441.604 2089.89L438.792 2084.27ZM961.969 2081.45L970.406 2084.27L961.969 2087.08V2081.45ZM998.531 2073.02L1001.34 2084.27L995.719 2081.45L998.531 2073.02ZM267.214 2075.83H272.839L270.026 2084.27L267.214 2075.83ZM213.771 2044.89L222.208 2047.7L213.771 2050.52V2044.89ZM1150.42 1960.51L1153.23 1966.13L1141.98 1963.32L1150.42 1960.51ZM129.385 1949.26H135.01V1954.88L126.573 1952.07L129.385 1949.26ZM1085.73 922.589L1094.17 925.401H1088.54L1085.73 931.031V922.589ZM1099.79 916.964L1105.42 919.776V925.401H1099.79V916.964ZM135.01 908.526L143.448 911.339L135.01 914.151V908.526ZM1077.29 891.651L1085.73 897.276H1077.29V891.651ZM47.8177 824.146L56.2552 826.958L47.8177 829.771V824.146ZM53.4427 801.641L56.2552 812.891L50.6302 804.453L53.4427 801.641ZM447.229 2101.14L452.854 2103.96H444.417L447.229 2101.14ZM835.391 2095.52L841.016 2101.14L832.578 2098.33L835.391 2095.52ZM188.453 2025.2L194.078 2028.01L191.266 2033.64L188.453 2025.2ZM1161.67 1966.13L1164.48 1971.76L1156.05 1968.94L1161.67 1966.13ZM106.885 1966.13L115.323 1971.76H106.885V1966.13ZM1127.92 908.526H1133.55V914.151H1127.92V908.526ZM1122.3 900.089L1127.92 902.901L1125.11 908.526L1122.3 900.089ZM208.146 894.464L216.583 897.276L208.146 900.089V894.464ZM1054.79 894.464L1063.23 897.276H1054.79V894.464ZM225.021 877.589L230.646 880.401L227.833 886.026L225.021 877.589ZM92.8177 874.771L98.4427 880.401L90.0052 877.589L92.8177 874.771ZM1178.55 860.708L1184.18 863.521H1175.74L1178.55 860.708ZM61.8802 857.896L67.5052 860.708L64.6927 866.333L61.8802 857.896ZM123.76 855.083H129.385L126.573 863.521L123.76 855.083ZM1158.86 843.833L1164.48 846.646H1156.05L1158.86 843.833ZM1186.99 835.396H1192.61V841.021H1186.99V835.396ZM1167.3 835.396L1175.74 838.208H1167.3V835.396ZM1226.37 801.641L1234.81 804.453H1226.37V801.641ZM11.25 793.203H16.875V798.828H11.25V793.203ZM1246.06 776.328L1251.68 779.141H1243.24L1246.06 776.328ZM486.609 47.8177L492.234 50.6302L489.422 56.2552L486.609 47.8177ZM528.802 36.5677H534.427V42.1927H528.802V36.5677ZM587.87 22.5052L593.495 25.3177L590.682 30.9427L587.87 22.5052ZM545.677 16.875L551.302 19.6875H542.865L545.677 16.875ZM464.104 2115.21L469.729 2120.83H464.104V2115.21ZM804.453 2115.21L807.266 2120.83L801.641 2118.02L804.453 2115.21ZM466.917 2103.96L469.729 2109.58L464.104 2106.77L466.917 2103.96ZM424.729 2092.7L430.354 2095.52L424.729 2098.33V2092.7ZM376.911 2084.27H382.536L379.724 2089.89L376.911 2084.27ZM264.401 2070.2L267.214 2075.83L261.589 2073.02L264.401 2070.2ZM947.901 2067.39H953.526L950.714 2073.02L947.901 2067.39ZM306.589 2067.39L312.214 2070.2L306.589 2073.02V2067.39ZM261.589 2061.77L267.214 2064.58L261.589 2067.39V2061.77ZM194.078 2036.45L199.703 2042.07H194.078V2036.45ZM1074.48 2036.45L1077.29 2042.07L1071.67 2039.26L1074.48 2036.45ZM1096.98 2016.76H1102.6L1099.79 2022.39L1096.98 2016.76ZM168.766 2016.76L174.391 2019.57L168.766 2022.39V2016.76ZM154.703 1983.01L160.328 1988.63H154.703V1983.01ZM1153.23 1952.07L1158.86 1954.88L1153.23 1957.69V1952.07ZM1111.04 911.339L1116.67 916.964H1111.04V911.339ZM157.516 911.339L160.328 916.964L154.703 914.151L157.516 911.339ZM149.073 908.526L151.885 914.151L146.26 911.339L149.073 908.526ZM219.396 905.714L222.208 911.339L216.583 908.526L219.396 905.714ZM118.135 894.464L123.76 897.276L118.135 900.089V894.464ZM1206.68 874.771L1209.49 880.401L1203.86 877.589L1206.68 874.771ZM1133.55 871.958L1139.17 877.589H1133.55V871.958ZM1184.18 866.333L1186.99 871.958L1181.36 869.146L1184.18 866.333ZM118.135 860.708L120.948 866.333L115.323 863.521L118.135 860.708ZM1201.05 852.271L1203.86 857.896L1198.24 855.083L1201.05 852.271ZM47.8177 846.646L50.6302 852.271L45 849.458L47.8177 846.646ZM36.5625 801.641H42.1875L39.375 807.266L36.5625 801.641ZM1254.49 742.573L1260.12 748.198H1254.49V742.573ZM11.25 742.573L14.0625 748.198L8.4375 745.386L11.25 742.573ZM781.948 39.3802L787.573 42.1927L781.948 45.0052V39.3802ZM697.568 28.1302H703.193L700.38 33.7552L697.568 28.1302ZM756.635 11.25L762.26 14.0625L756.635 16.875V11.25ZM641.313 11.25L646.938 14.0625L641.313 16.875V11.25Z" fill="#FEE0C8"/>
</svg>
