<svg width="52" height="271" viewBox="0 0 52 271" fill="none" xmlns="http://www.w3.org/2000/svg">
<path d="M18.5625 0L21.0938 1.6875L22.7812 0.84375L21.9375 7.59375L23.625 8.4375V10.125H25.3125L26.1562 11.8125L27.8438 10.9688L27 8.4375L28.6875 5.0625L30.375 10.125L32.0625 10.9688L31.2188 13.5L30.375 15.1875V18.5625L32.9062 16.875H37.125L33.75 19.4062L32.9062 21.0938L31.2188 22.7812L37.9688 21.9375L35.4375 25.3125L39.6562 27L40.5 28.6875L43.0312 27.8438L43.875 29.5312H46.4062V31.2188L48.9375 30.375L50.625 29.5312L51.4688 34.5938L49.7812 39.6562L51.4688 40.5L50.625 51.4688L46.4062 66.6562L42.1875 86.0625L40.5 113.906L37.125 133.312L28.6875 162.844L22.7812 184.781L21.0938 195.75V206.719L26.1562 216L28.6875 250.594L27 255.656L23.625 256.5L21.0938 253.969L20.25 250.594L19.4062 237.094H17.7188L16.875 246.375L18.5625 253.969L24.4688 262.406L27.8438 266.625L27 270.844H21.9375L11.8125 264.094L5.0625 257.344L0.84375 246.375L0 243L0.84375 115.594L2.53125 100.406L6.75 85.2188L9.28125 74.25L10.9688 47.25L15.1875 22.7812V13.5L16.875 12.6562L16.0312 10.125L18.5625 9.28125V10.9688L20.25 10.125L17.7188 7.59375L18.5625 4.21875V0ZM23.625 15.1875L24.4688 16.875H27L26.1562 15.1875H23.625ZM42.1875 29.5312L41.3438 31.2188H43.0312L42.1875 29.5312ZM43.875 31.2188L41.3438 32.9062L42.1875 34.5938L45.5625 32.9062L43.875 31.2188Z" fill="#FDE0C7"/>
</svg>
