<svg width="52" height="271" viewBox="0 0 52 271" fill="none" xmlns="http://www.w3.org/2000/svg">
<path d="M32.9062 0L30.375 1.6875L28.6875 0.84375L29.5312 7.59375L27.8438 8.4375V10.125H26.1562L25.3125 11.8125L23.625 10.9688L24.4688 8.4375L22.7812 5.0625L21.0938 10.125L19.4062 10.9688L20.25 13.5L21.0938 15.1875V18.5625L18.5625 16.875H14.3438L17.7188 19.4062L18.5625 21.0938L20.25 22.7812L13.5 21.9375L16.0312 25.3125L11.8125 27L10.9688 28.6875L8.4375 27.8438L7.59375 29.5312H5.0625V31.2188L2.53125 30.375L0.84375 29.5312L0 34.5938L1.6875 39.6562L0 40.5L0.84375 51.4688L5.0625 66.6562L9.28125 86.0625L10.9688 113.906L14.3438 133.312L22.7812 162.844L28.6875 184.781L30.375 195.75V206.719L25.3125 216L22.7812 250.594L24.4688 255.656L27.8438 256.5L30.375 253.969L31.2188 250.594L32.0625 237.094H33.75L34.5938 246.375L32.9062 253.969L27 262.406L23.625 266.625L24.4688 270.844H29.5312L39.6562 264.094L46.4062 257.344L50.625 246.375L51.4688 243L50.625 115.594L48.9375 100.406L44.7188 85.2188L42.1875 74.25L40.5 47.25L36.2812 22.7812V13.5L34.5938 12.6562L35.4375 10.125L32.9062 9.28125V10.9688L31.2188 10.125L33.75 7.59375L32.9062 4.21875V0ZM27.8438 15.1875L27 16.875H24.4688L25.3125 15.1875H27.8438ZM9.28125 29.5312L10.125 31.2188H8.4375L9.28125 29.5312ZM7.59375 31.2188L10.125 32.9062L9.28125 34.5938L5.90625 32.9062L7.59375 31.2188Z" fill="#FDE0C7"/>
</svg>
