<svg width="178" height="120" viewBox="0 0 178 120" fill="none" xmlns="http://www.w3.org/2000/svg">
<path d="M38.8125 3.375L39.6562 5.90625H42.1875L43.0312 4.21875L45.5625 6.75V5.0625H49.7812V11.8125L48.9375 17.7188V46.4062L49.7812 48.9375V59.0625L48.0938 66.6562V81.8438L45.5625 86.0625L43.0312 88.5938L38.8125 108.844L31.2188 117.281L27 119.812L19.4062 118.969L7.59375 116.438L1.6875 112.219L0 109.688V103.781L5.0625 93.6562L12.6562 83.5312L20.25 66.6562L21.0938 64.125V53.1562L22.7812 45.5625V33.75L20.25 11.8125L21.0938 8.4375H22.7812V5.90625L25.3125 5.0625L29.5312 6.75L32.0625 4.21875L34.5938 5.0625H38.8125V3.375ZM25.3125 8.4375L24.4688 10.9688L27 11.8125L27.8438 9.28125L25.3125 8.4375ZM30.375 9.28125L32.0625 10.9688L32.9062 9.28125H30.375ZM27.8438 10.125L28.6875 11.8125L30.375 10.9688L27.8438 10.125ZM137.531 3.375L138.375 5.0625H143.438L145.125 4.21875L148.5 6.75L152.719 5.0625L154.406 6.75V8.4375L156.094 9.28125L156.938 12.6562L154.406 32.0625V43.0312L155.25 48.9375L156.094 64.9688L165.375 85.2188L172.125 93.6562L176.344 102.094L177.188 108.844L172.969 113.906L167.062 117.281L156.938 118.969H148.5L141.75 113.062L138.375 108.844L136.688 103.781L134.156 88.5938L129.094 83.5312L128.25 62.4375L126.562 57.375V51.4688L128.25 45.5625V21.0938L127.406 12.6562V5.0625H131.625V6.75L135 4.21875V5.90625H137.531V3.375ZM150.188 8.4375L149.344 10.125L150.188 11.8125L152.719 10.9688L151.875 8.4375H150.188ZM144.281 9.28125L145.969 10.9688L146.812 9.28125H144.281ZM147.656 10.125L146.812 11.8125L149.344 10.9688L147.656 10.125ZM140.062 0L141.75 0.84375L140.906 3.375L138.375 1.6875L140.062 0ZM36.2812 0L38.8125 2.53125L36.2812 3.375V0Z" fill="#FDDFC6"/>
</svg>
