<svg width="883" height="1279" viewBox="0 0 883 1279" fill="none" xmlns="http://www.w3.org/2000/svg">
<path d="M356.906 0H515.531L594.844 19.8281L693.984 69.3958L743.552 109.052L793.125 178.453L832.781 307.333L842.693 366.818V456.047L822.865 584.927L862.521 575.016L882.349 584.927V713.812L842.693 832.781L803.036 872.438H773.297L753.469 981.49L743.552 1011.23L733.641 1169.85H693.984L713.812 1209.51L654.328 1229.34L644.411 1259.08H604.755L575.016 1268.99V1249.17L515.531 1278.91H396.562L337.078 1249.17L327.161 1268.99L277.594 1249.17L257.766 1259.08V1229.34L198.281 1209.51L218.109 1169.85H158.625L148.708 1021.15L118.969 931.922L109.052 882.349L69.3958 862.521L39.6562 822.865L0 693.984V594.844L49.5677 584.927V287.505L89.224 178.453L128.88 118.969L228.021 39.6562L317.25 9.91146L356.906 0Z" fill="#FDE0C6"/>
</svg>
