<svg width="566" height="1370" viewBox="0 0 566 1370" fill="none" xmlns="http://www.w3.org/2000/svg">
<path d="M53.6211 0L62.5579 5.95652L68.5158 8.93478L74.4737 14.8913L86.3895 8.93478L89.3684 17.8696L95.3263 20.8478L98.3053 8.93478L104.263 11.913L101.284 26.8043H110.221L116.179 14.8913L122.137 20.8478H116.179V26.8043L134.053 23.8261L145.968 29.7826L148.947 14.8913H140.011L142.989 8.93478L151.926 11.913V17.8696L160.863 14.8913V20.8478L166.821 23.8261L163.842 26.8043H178.737L175.758 35.7391H208.526L217.463 26.8043L223.421 23.8261V17.8696L235.337 23.8261L220.442 38.7174L214.484 35.7391L220.442 41.6957L232.358 38.7174L238.316 41.6957L247.253 29.7826L250.232 41.6957L262.147 38.7174L265.126 50.6304H271.084L274.063 38.7174L285.979 41.6957L294.916 38.7174V50.6304H300.874L303.853 38.7174L315.768 41.6957L318.747 29.7826L327.684 41.6957L339.6 38.7174L348.537 41.6957L351.516 35.7391L342.579 38.7174L330.663 23.8261L342.579 17.8696V23.8261L348.537 26.8043L360.453 38.7174L384.284 35.7391H390.242L387.263 26.8043H402.158L399.179 23.8261L405.137 20.8478L408.116 14.8913L414.074 17.8696V11.913L425.989 8.93478V14.8913H417.053L420.032 29.7826L437.905 23.8261L449.821 26.8043V20.8478L443.863 17.8696H452.8L455.779 26.8043H464.716L461.737 8.93478L470.674 11.913V20.8478L476.632 14.8913L479.611 8.93478L491.526 14.8913L497.484 8.93478L506.421 5.95652L512.379 0L515.358 5.95652L521.316 53.6087L536.211 113.174L554.084 223.37L560.042 279.957L566 408.022V467.587L560.042 550.978L554.084 595.652L545.147 670.109L533.232 723.717L527.274 756.478V810.087L530.253 905.391L539.189 956.022L545.147 982.826L551.105 1054.3L545.147 1164.5L521.316 1343.2L515.358 1355.11L512.379 1346.17L503.442 1343.2L500.463 1349.15L506.421 1352.13L500.463 1358.09L494.505 1361.07H473.653L464.716 1355.11V1346.17L452.8 1355.11V1343.2H446.842V1337.24L437.905 1340.22V1358.09L428.968 1355.11L431.947 1346.17L425.989 1337.24V1328.3H420.032L414.074 1277.67L399.179 1203.22L381.305 1119.83L378.326 1098.98V1027.5L381.305 997.717V953.043L369.389 905.391L360.453 884.543L351.516 851.783L345.558 807.109L342.579 750.522V720.739L330.663 640.326L309.811 533.109L300.874 482.478L297.895 455.674V387.174H265.126L268.105 434.826L262.147 482.478L247.253 574.804L232.358 649.261L223.421 720.739L220.442 801.152L211.505 857.739L196.611 908.37L184.695 944.109V1107.91L178.737 1149.61L163.842 1218.11L154.905 1259.8L145.968 1325.33L134.053 1346.17V1358.09H128.095V1340.22L119.158 1337.24V1343.2H113.2L110.221 1355.11L101.284 1346.17L98.3053 1355.11L89.3684 1361.07H65.5368V1355.11L59.5789 1349.15H65.5368L62.5579 1343.2L53.6211 1346.17L50.6421 1355.11L44.6842 1352.13L35.7474 1277.67L23.8316 1179.39L17.8737 1125.78L14.8947 1042.39L26.8105 953.043L35.7474 905.391V744.565L17.8737 670.109L8.93684 595.652L2.97895 494.391L0 461.63V402.065L5.95789 276.978L26.8105 110.196L35.7474 83.3913L47.6632 23.8261L53.6211 0ZM80.4316 17.8696V26.8043L86.3895 20.8478L80.4316 17.8696ZM482.589 17.8696V26.8043L488.547 20.8478L482.589 17.8696ZM247.253 44.6739V50.6304L253.211 47.6522L247.253 44.6739ZM315.768 44.6739L312.789 50.6304H318.747L315.768 44.6739ZM274.063 47.6522L277.042 56.587H291.937L288.958 47.6522H274.063Z" fill="#FDDFC6"/>
<path d="M280.021 23.8261L294.916 26.8043L285.979 32.7609L271.084 29.7826L280.021 23.8261ZM431.947 0L440.884 2.97826L443.863 11.913H437.905V5.95652L428.968 2.97826L431.947 0ZM131.074 0L137.031 5.95652H128.095V11.913L122.137 8.93478L131.074 0ZM205.547 20.8478L208.526 26.8043L217.463 29.7826H205.547V20.8478ZM357.474 20.8478L360.453 29.7826L348.537 26.8043H357.474V20.8478ZM467.695 1361.07L473.653 1364.04L470.674 1370L464.716 1364.04L467.695 1361.07ZM95.3262 1361.07L101.284 1367.02L92.3473 1370L95.3262 1361.07ZM470.674 2.97826H476.631V8.93478H470.674V2.97826ZM89.3683 2.97826H95.3262V8.93478H89.3683V2.97826ZM104.263 1352.13L110.221 1358.09H104.263V1352.13ZM458.758 1352.13L461.737 1358.09L455.779 1355.11L458.758 1352.13ZM327.684 32.7609L333.642 38.7174H327.684V32.7609ZM235.337 32.7609L238.316 38.7174L232.358 35.7391L235.337 32.7609ZM107.242 11.913L113.2 17.8696H107.242V11.913ZM455.779 11.913L458.758 17.8696L452.8 14.8913L455.779 11.913Z" fill="#FDDFC6"/>
</svg>
