<svg width="55" height="46" viewBox="0 0 55 46" fill="none" xmlns="http://www.w3.org/2000/svg">
<path d="M42.1875 26.1562L43.875 27.8438H42.1875V26.1562Z" fill="#FEE0C6"/>
<path d="M12.6562 26.1562L13.5 27.8438L11.8125 27L12.6562 26.1562Z" fill="#FFE0C6"/>
<path d="M5.0625 0L9.28125 1.6875H16.0312L16.875 0L19.4062 0.84375L22.7812 0L27 0.84375V2.53125H28.6875V0.84375L33.75 0L37.125 0.84375L39.6562 0V1.6875H46.4062L50.625 0L51.4688 0.84375L52.3125 22.7812L54.8438 30.375L52.3125 32.0625L50.625 34.5938L47.25 36.2812L43.0312 40.5L37.9688 43.0312L36.2812 44.7188L33.75 43.875L29.5312 45.5625L22.7812 44.7188L21.0938 43.875L18.5625 44.7188L17.7188 43.0312L12.6562 40.5L5.90625 34.5938H4.21875L3.375 32.0625L0 28.6875L1.6875 20.25L2.53125 4.21875L5.0625 0Z" fill="#FEE0C7"/>
<path d="M9.28125 0L10.9688 0.84375L9.28125 1.6875V0ZM44.7188 0H46.4062L45.5625 1.6875L44.7188 0Z" fill="#FEE0C7"/>
</svg>
