<svg width="224" height="260" viewBox="0 0 224 260" fill="none" xmlns="http://www.w3.org/2000/svg">
<path d="M85.2188 0H95.3438V2.53125L94.5 3.375H99.5625L103.781 4.21875H107.156L108.844 5.0625L109.688 2.53125L111.375 3.375L110.531 5.0625H113.906L113.062 2.53125H114.75L115.594 5.0625L119.812 3.375L124.031 4.21875L125.719 3.375H129.938L129.094 2.53125V0H137.531L140.906 5.0625L155.25 12.6562L163.688 16.0312L175.5 21.9375L188.156 24.4688L202.5 31.2188L210.094 37.9688L216 49.7812L218.531 58.2188L219.375 64.9688V95.3438L223.594 114.75V123.188H221.062V127.406L217.688 129.938H214.312L210.938 130.781L207.562 132.469L201.656 133.312H199.125L197.438 132.469L196.594 134.156L194.906 133.312L190.688 134.156L187.312 131.625L184.781 118.969L183.938 117.281L180.562 129.938L175.5 156.938V176.344L179.719 191.531V205.031L178.875 211.781L182.25 226.125L183.938 232.875V237.938L182.25 238.781V237.094L179.719 238.781L180.562 244.688H178.031L175.5 243.844L173.812 245.531L168.75 251.438L167.906 248.906V246.375L168.75 243.844L164.531 246.375L163.688 248.906L160.312 248.062L158.625 247.219L156.938 250.594L149.344 251.438H145.969L143.438 253.969L134.156 256.5V254.812H135.844L134.156 253.125L132.469 250.594L129.094 252.281L131.625 254.812L130.781 256.5L127.406 257.344L126.562 255.656L124.031 257.344L120.656 255.656L118.969 259.031L118.125 256.5L113.062 254.812V256.5H111.375V254.812L106.312 256.5L104.625 259.031L102.938 255.656L99.5625 257.344L97.875 255.656L96.1875 257.344L93.6562 256.5L92.8125 253.969L95.3438 251.438L91.9688 250.594L90.2812 253.125L88.5938 254.812H90.2812L89.4375 256.5L84.375 254.812L80.1562 253.969L77.625 250.594L70.875 251.438L67.5 250.594L65.8125 247.219L61.5938 248.906H59.9062L59.0625 245.531L55.6875 243.844L56.5312 246.375V248.906L55.6875 251.438L52.3125 247.219L50.625 245.531L48.0938 243.844L44.7188 245.531L43.875 242.156L44.7188 237.938L42.1875 237.094L41.3438 238.781L39.6562 235.406L41.3438 226.969L44.7188 211.781V191.531L48.0938 175.5L48.9375 169.594V159.469L45.5625 138.375L42.1875 124.875L40.5 118.969V115.594H38.8125L37.125 129.938L35.4375 133.312L32.0625 134.156L28.6875 133.312L27 134.156V132.469L23.625 134.156L17.7188 132.469H15.1875L13.5 130.781L10.125 129.938L6.75 130.781V129.094L3.375 127.406V123.188L0 122.344L0.84375 111.375L3.375 97.875L2.53125 67.5L6.75 48.0938L11.8125 38.8125L16.0312 34.5938L20.25 31.2188L34.5938 24.4688L49.7812 21.0938L65.8125 12.6562L79.3125 5.90625L84.375 1.6875L85.2188 0ZM43.0312 232.031L41.3438 235.406L43.875 236.25L44.7188 232.031H43.0312ZM179.719 232.031L180.562 236.25L183.094 235.406L181.406 232.031H179.719ZM48.0938 239.625L48.9375 242.156L52.3125 240.469L48.0938 239.625ZM173.812 239.625L172.125 241.312L175.5 242.156L176.344 239.625H173.812ZM63.2812 244.688V246.375H64.9688V244.688H63.2812ZM159.469 244.688V246.375H161.156V244.688H159.469Z" fill="#FDE0C7"/>
</svg>
